<svg width="303" height="143" viewBox="0 0 303 143" fill="none" xmlns="http://www.w3.org/2000/svg">
<path d="M230.039 48.1451H229.629C228.159 48.0305 226.795 47.338 225.834 46.2191C224.874 45.1003 224.396 43.6464 224.506 42.176L227.157 5.17031C227.21 4.44027 227.406 3.72781 227.735 3.07362C228.063 2.41943 228.517 1.83631 229.071 1.35756C229.624 0.878808 230.267 0.513802 230.962 0.283381C231.656 0.0529595 232.39 -0.0383629 233.12 0.014624C233.85 0.067611 234.562 0.263867 235.217 0.592196C235.871 0.920524 236.454 1.37449 236.933 1.92818C237.411 2.48186 237.776 3.12442 238.007 3.81917C238.237 4.51392 238.328 5.24725 238.275 5.97729L235.598 42.9702C235.495 44.3748 234.865 45.6885 233.834 46.6481C232.803 47.6077 231.448 48.1424 230.039 48.1451Z" fill="#EDCB20"/>
<path d="M250.242 62.5169C249.101 62.5189 247.988 62.1708 247.051 61.5197C246.115 60.8686 245.401 59.9458 245.005 58.8759C244.61 57.8061 244.553 56.6407 244.841 55.5372C245.129 54.4337 245.749 53.4451 246.617 52.7051L268.546 34.0037C269.098 33.4883 269.748 33.0901 270.458 32.8331C271.168 32.5761 271.922 32.4657 272.676 32.5085C273.43 32.5513 274.167 32.7465 274.843 33.0823C275.519 33.418 276.12 33.8874 276.61 34.4619C277.099 35.0365 277.467 35.7044 277.692 36.4252C277.916 37.146 277.992 37.9048 277.915 38.6558C277.837 39.4067 277.609 40.1342 277.242 40.7943C276.876 41.4544 276.38 42.0333 275.783 42.4962L253.854 61.1463C252.852 62.0204 251.571 62.5066 250.242 62.5169Z" fill="#EDCB20"/>
<path d="M297.288 87.9048H296.878L260.013 85.2277C259.283 85.1747 258.571 84.9785 257.916 84.6501C257.262 84.3218 256.679 83.8678 256.2 83.3142C255.722 82.7605 255.357 82.1179 255.126 81.4232C254.896 80.7284 254.804 79.9951 254.857 79.265C254.91 78.535 255.107 77.8225 255.435 77.1683C255.763 76.5142 256.217 75.931 256.771 75.4523C257.325 74.9735 257.967 74.6085 258.662 74.3781C259.357 74.1477 260.09 74.0564 260.82 74.1094L297.685 76.7865C299.128 76.8844 300.477 77.5399 301.446 78.6145C302.415 79.6891 302.928 81.0984 302.876 82.5443C302.825 83.9903 302.213 85.3594 301.17 86.3622C300.127 87.365 298.735 87.9228 297.288 87.9176V87.9048Z" fill="#EDCB20"/>
<path d="M247.268 97.9601C245.871 97.9523 244.527 97.4223 243.501 96.4742C242.475 95.5262 241.84 94.2286 241.722 92.8364C239.16 62.5171 213.926 58.9946 212.863 58.8665C211.453 58.6269 210.189 57.8558 209.331 56.7122C208.473 55.5686 208.087 54.1395 208.251 52.7193C208.415 51.2991 209.118 49.996 210.214 49.0783C211.31 48.1606 212.717 47.6983 214.144 47.7865C226.338 49.1956 250.112 60.2243 252.814 91.8885C252.935 93.368 252.463 94.8346 251.502 95.966C250.541 97.0974 249.17 97.8009 247.691 97.9217L247.268 97.9601Z" fill="#EDCB20"/>
<path d="M30.1762 48.4269C32.3879 50.8521 33.4937 54.1867 33.4937 58.4308V77.1194H23.746V59.7502C23.8631 57.9299 23.2709 56.135 22.0936 54.7418C20.8826 53.5949 19.2782 52.9558 17.6104 52.9558C15.9426 52.9558 14.3381 53.5949 13.1272 54.7418C11.9531 56.1317 11.3611 57.9214 11.4748 59.7374V77.1066H1.67578V34.6826H11.4876V49.426C12.5222 47.9632 13.9223 46.7972 15.5481 46.0444C17.3533 45.1762 19.3349 44.7378 21.3379 44.7634C22.9887 44.6955 24.6346 44.988 26.1609 45.6207C27.6873 46.2534 29.0575 47.2109 30.1762 48.4269Z" fill="#F8A700"/>
<path d="M40.232 52.4104C41.3624 50.0512 43.1392 48.0613 45.3557 46.6719C47.4994 45.3268 49.9855 44.6285 52.516 44.6609C54.578 44.6141 56.6182 45.09 58.4467 46.0442C60.0405 46.8664 61.3851 48.1004 62.3407 49.618V45.122H72.1397V77.1449H62.3407V72.6105C61.3496 74.1406 59.9765 75.3856 58.357 76.2227C56.528 77.1753 54.4881 77.6511 52.4264 77.606C49.9095 77.6296 47.4399 76.9221 45.3173 75.5694C43.103 74.155 41.3283 72.1495 40.1936 69.7796C38.9093 67.068 38.2734 64.0948 38.3363 61.095C38.2768 58.0914 38.9263 55.116 40.232 52.4104ZM60.304 55.3309C59.6632 54.6621 58.8936 54.13 58.0417 53.7664C57.1898 53.4028 56.2731 53.2154 55.3469 53.2154C54.4206 53.2154 53.5039 53.4028 52.652 53.7664C51.8001 54.13 51.0306 54.6621 50.3897 55.3309C49.6851 56.1087 49.1422 57.0189 48.7925 58.0084C48.4429 58.998 48.2935 60.0472 48.3531 61.095C48.2403 63.226 48.972 65.3155 50.3897 66.9104C51.0267 67.5857 51.795 68.1238 52.6475 68.4915C53.4999 68.8593 54.4185 69.049 55.3469 69.049C56.2752 69.049 57.1938 68.8593 58.0463 68.4915C58.8987 68.1238 59.667 67.5857 60.304 66.9104C61.6093 65.2727 62.32 63.2405 62.32 61.1463C62.32 59.052 61.6093 57.0198 60.304 55.3821V55.3309Z" fill="#F8A700"/>
<path d="M93.0202 46.0445C94.8389 45.0887 96.8713 44.6125 98.9252 44.6611C101.464 44.6238 103.96 45.3222 106.111 46.6721C108.328 48.0615 110.104 50.0515 111.235 52.4106C112.523 55.1117 113.16 58.0777 113.092 61.0696C113.155 64.0694 112.519 67.0426 111.235 69.7543C110.1 72.1242 108.325 74.1296 106.111 75.544C103.972 76.9022 101.485 77.6098 98.9508 77.5807C96.9059 77.6215 94.8836 77.1457 93.0714 76.1973C91.4665 75.3682 90.0964 74.1479 89.0878 72.6491V92.3753H79.2119V45.1222H89.0109V49.6182C90.0146 48.0993 91.3963 46.8677 93.0202 46.0445ZM100.988 55.3055C100.345 54.6257 99.5678 54.0877 98.7053 53.726C97.8428 53.3642 96.9142 53.1867 95.9791 53.2048C95.048 53.1914 94.1244 53.3737 93.2683 53.74C92.4121 54.1063 91.6424 54.6484 91.0092 55.3311C89.7126 56.9727 89.0073 59.0034 89.0073 61.0953C89.0073 63.1871 89.7126 65.2178 91.0092 66.8594C91.6496 67.5358 92.4211 68.0745 93.2767 68.4427C94.1324 68.8109 95.0541 69.0008 95.9855 69.0008C96.917 69.0008 97.8387 68.8109 98.6943 68.4427C99.5499 68.0745 100.321 67.5358 100.962 66.8594C102.392 65.2706 103.134 63.1791 103.024 61.044C103.08 60.0004 102.929 58.956 102.58 57.9711C102.23 56.9862 101.689 56.0802 100.988 55.3055Z" fill="#F8A700"/>
<path d="M131.947 46.0445C133.765 45.0887 135.798 44.6125 137.852 44.6611C140.386 44.6292 142.876 45.3273 145.025 46.6721C147.239 48.0642 149.015 50.0534 150.148 52.4106C151.441 55.1107 152.082 58.0767 152.018 61.0696C152.077 64.0704 151.437 67.0437 150.148 69.7543C149.014 72.1242 147.239 74.1296 145.025 75.544C142.881 76.9025 140.389 77.61 137.852 77.5807C135.807 77.6215 133.784 77.1457 131.972 76.1973C130.37 75.3645 129 74.145 127.988 72.6491V92.3753H118.189V45.1222H127.988V49.6182C128.981 48.1086 130.344 46.8783 131.947 46.0445ZM139.952 55.3055C139.307 54.6254 138.528 54.0873 137.663 53.7256C136.799 53.3638 135.868 53.1865 134.931 53.2048C134.002 53.1924 133.081 53.3752 132.227 53.7415C131.373 54.1078 130.605 54.6494 129.974 55.3311C128.669 56.9688 127.958 59.001 127.958 61.0953C127.958 63.1895 128.669 65.2217 129.974 66.8594C130.613 67.5354 131.384 68.074 132.238 68.442C133.093 68.81 134.013 68.9999 134.944 68.9999C135.874 68.9999 136.795 68.81 137.649 68.442C138.504 68.074 139.275 67.5354 139.914 66.8594C140.627 66.0753 141.177 65.1576 141.534 64.1594C141.89 63.1613 142.044 62.1024 141.989 61.044C142.045 60.0004 141.894 58.956 141.544 57.9711C141.195 56.9862 140.654 56.0802 139.952 55.3055Z" fill="#F8A700"/>
<path d="M189.806 45.1221L169.734 92.3111H159.179L166.519 76.0306L153.505 45.1221H164.457L171.86 65.13L179.2 45.1221H189.806Z" fill="#F8A700"/>
<path d="M7.23718 141.447C5.22143 140.595 3.45747 139.242 2.11352 137.515C0.876957 135.9 0.142008 133.958 0 131.93H9.68373C9.7336 132.463 9.89786 132.98 10.1653 133.444C10.4328 133.908 10.7972 134.309 11.2336 134.62C12.2148 135.331 13.4043 135.696 14.6153 135.657C15.6144 135.717 16.6076 135.467 17.4589 134.94C17.7693 134.737 18.0236 134.46 18.1982 134.133C18.3729 133.806 18.4622 133.44 18.458 133.07C18.4578 132.624 18.3198 132.189 18.063 131.824C17.8062 131.46 17.4432 131.184 17.0234 131.033C15.5208 130.419 13.9698 129.931 12.3865 129.573C10.4348 129.151 8.51676 128.586 6.64796 127.882C5.11717 127.288 3.75733 126.325 2.68992 125.077C1.53483 123.626 0.943398 121.806 1.02473 119.953C1.0136 118.164 1.54506 116.413 2.54903 114.932C3.6677 113.336 5.21849 112.091 7.01942 111.345C9.24882 110.434 11.644 109.997 14.0517 110.065C17.4689 109.875 20.8382 110.936 23.5304 113.049C24.6838 114.041 25.6296 115.25 26.3133 116.609C26.997 117.968 27.4051 119.448 27.5141 120.965H18.4196C18.3632 120.451 18.205 119.952 17.9543 119.499C17.7037 119.046 17.3654 118.648 16.9593 118.326C16.0238 117.638 14.8788 117.294 13.7186 117.353C12.793 117.296 11.872 117.524 11.0799 118.006C10.7895 118.207 10.5541 118.478 10.3952 118.793C10.2363 119.109 10.1591 119.459 10.1705 119.812C10.1721 120.266 10.3131 120.708 10.5742 121.08C10.8354 121.451 11.2041 121.733 11.6307 121.887C13.1019 122.493 14.6294 122.952 16.1908 123.258C18.1544 123.746 20.0876 124.349 21.9805 125.064C23.5037 125.683 24.8503 126.668 25.9001 127.933C27.0937 129.438 27.7155 131.317 27.655 133.236C27.6783 135.035 27.1263 136.794 26.0795 138.258C24.9192 139.81 23.3489 141.008 21.545 141.716C19.3717 142.605 17.0398 143.041 14.6921 142.997C12.126 143.009 9.58604 142.481 7.23718 141.447Z" fill="#F8A700"/>
<path d="M65.2603 110.423V142.446H55.4613V138.091C54.4147 139.544 53.024 140.715 51.4136 141.498C49.659 142.368 47.7227 142.807 45.7648 142.779C43.5221 142.812 41.3114 142.246 39.3602 141.14C37.4662 140.034 35.9453 138.388 34.9923 136.413C33.918 134.141 33.3873 131.65 33.4424 129.138V110.436H43.1901V127.754C43.0833 129.567 43.6798 131.352 44.8553 132.737C46.0735 133.87 47.6752 134.499 49.3385 134.499C51.0019 134.499 52.6036 133.87 53.8218 132.737C55.0033 131.356 55.6005 129.568 55.487 127.754V110.423H65.2603Z" fill="#F8A700"/>
<path d="M100.784 113.728C103.03 116.145 104.149 119.48 104.14 123.732V142.421H94.3927V125.052C94.5056 123.233 93.9086 121.443 92.7275 120.056C91.518 118.906 89.913 118.265 88.2443 118.265C86.5755 118.265 84.9706 118.906 83.7611 120.056C82.5847 121.445 81.9884 123.234 82.0959 125.052V142.421H72.2969V110.398H82.0959V114.638C83.1283 113.197 84.5132 112.046 86.118 111.294C87.8837 110.431 89.827 109.992 91.7924 110.014C93.4714 109.94 95.1462 110.234 96.6995 110.876C98.2528 111.517 99.647 112.491 100.784 113.728Z" fill="#F8A700"/>
<path d="M116.525 141.447C114.51 140.596 112.746 139.242 111.402 137.515C110.165 135.901 109.43 133.958 109.288 131.93H118.921C118.97 132.463 119.135 132.98 119.402 133.444C119.67 133.908 120.034 134.309 120.471 134.62C121.452 135.331 122.641 135.696 123.852 135.657C124.851 135.717 125.844 135.467 126.696 134.94C127.006 134.738 127.26 134.46 127.435 134.133C127.61 133.806 127.699 133.441 127.695 133.07C127.695 132.624 127.557 132.189 127.3 131.825C127.043 131.46 126.68 131.184 126.26 131.033C124.758 130.419 123.207 129.931 121.623 129.573C119.672 129.151 117.754 128.586 115.885 127.882C114.354 127.288 112.994 126.325 111.927 125.077C110.772 123.626 110.18 121.806 110.262 119.953C110.25 118.164 110.782 116.413 111.786 114.932C112.905 113.336 114.455 112.092 116.256 111.346C118.481 110.434 120.872 109.998 123.276 110.065C126.697 109.872 130.072 110.933 132.767 113.049C133.921 114.041 134.866 115.251 135.55 116.609C136.234 117.968 136.642 119.448 136.751 120.965H127.695C127.638 120.451 127.48 119.952 127.23 119.499C126.979 119.046 126.641 118.648 126.235 118.327C125.296 117.645 124.153 117.301 122.994 117.353C122.068 117.294 121.147 117.522 120.355 118.006C120.065 118.207 119.829 118.478 119.67 118.794C119.512 119.109 119.434 119.459 119.446 119.813C119.447 120.266 119.588 120.709 119.849 121.08C120.111 121.451 120.479 121.733 120.906 121.888C122.373 122.492 123.896 122.951 125.453 123.258C127.421 123.747 129.358 124.35 131.256 125.064C132.779 125.683 134.126 126.668 135.175 127.934C136.369 129.438 136.991 131.317 136.93 133.237C136.954 135.035 136.402 136.795 135.355 138.258C134.195 139.81 132.624 141.008 130.82 141.716C128.647 142.605 126.315 143.041 123.967 142.997C121.406 143.007 118.87 142.479 116.525 141.447Z" fill="#F8A700"/>
<path d="M171.438 113.728C173.667 116.149 174.768 119.479 174.768 123.732V142.421H165.033V125.051C165.146 123.233 164.549 121.442 163.368 120.056C162.159 118.906 160.554 118.265 158.885 118.265C157.216 118.265 155.611 118.906 154.402 120.056C153.225 121.445 152.629 123.234 152.737 125.051V142.421H142.938V99.9966H152.737V114.727C153.787 113.274 155.189 112.111 156.81 111.346C158.615 110.476 160.597 110.038 162.6 110.065C164.251 109.995 165.897 110.287 167.424 110.919C168.95 111.552 170.32 112.511 171.438 113.728Z" fill="#F8A700"/>
<path d="M182.326 105.582C181.8 105.11 181.381 104.531 181.098 103.883C180.815 103.236 180.675 102.535 180.687 101.828C180.666 101.107 180.802 100.391 181.085 99.7274C181.368 99.0641 181.792 98.4699 182.326 97.9857C183.477 96.946 184.99 96.3988 186.54 96.4614C188.07 96.4088 189.559 96.9558 190.691 97.9857C191.225 98.4699 191.648 99.0641 191.931 99.7274C192.214 100.391 192.35 101.107 192.33 101.828C192.342 102.535 192.201 103.236 191.918 103.883C191.635 104.531 191.217 105.11 190.691 105.582C189.559 106.611 188.07 107.158 186.54 107.106C184.99 107.168 183.477 106.621 182.326 105.582ZM191.408 110.423V142.446H181.609V110.423H191.408Z" fill="#F8A700"/>
<path d="M226.993 113.728C229.354 116.508 230.556 120.09 230.349 123.732V142.421H220.601V125.052C220.708 123.234 220.112 121.445 218.936 120.056C217.726 118.906 216.121 118.265 214.452 118.265C212.784 118.265 211.179 118.906 209.969 120.056C208.788 121.443 208.191 123.234 208.304 125.052V142.421H198.492V110.398H208.304V114.638C209.329 113.196 210.711 112.044 212.313 111.294C214.079 110.431 216.022 109.992 217.988 110.014C219.668 109.943 221.344 110.239 222.899 110.88C224.454 111.522 225.85 112.494 226.993 113.728Z" fill="#F8A700"/>
<path d="M267.162 128.779H244.964C244.997 130.485 245.685 132.113 246.885 133.326C248.008 134.386 249.505 134.957 251.048 134.915C252.119 135 253.19 134.747 254.11 134.191C255.029 133.635 255.751 132.803 256.172 131.815H266.611C266.069 133.904 265.062 135.844 263.665 137.489C262.237 139.19 260.441 140.543 258.413 141.447C256.196 142.429 253.793 142.919 251.368 142.882C248.45 142.937 245.566 142.245 242.991 140.871C240.562 139.556 238.568 137.562 237.253 135.132C235.905 132.427 235.203 129.445 235.203 126.422C235.203 123.399 235.905 120.418 237.253 117.712C238.551 115.283 240.533 113.288 242.953 111.973C245.552 110.602 248.456 109.91 251.394 109.962C254.265 109.91 257.102 110.584 259.643 111.922C262.023 113.191 263.985 115.121 265.292 117.481C266.694 120.065 267.396 122.971 267.329 125.91C267.322 126.868 267.266 127.826 267.162 128.779ZM257.299 123.322C257.33 122.567 257.191 121.814 256.892 121.12C256.592 120.426 256.14 119.809 255.57 119.313C254.375 118.3 252.844 117.769 251.279 117.827C249.762 117.779 248.28 118.289 247.116 119.262C245.939 120.308 245.194 121.756 245.028 123.322H257.299Z" fill="#F8A700"/>
</svg>
