<svg width="307" height="39" viewBox="0 0 307 39" fill="none" xmlns="http://www.w3.org/2000/svg">
<path d="M6.388 11.756C6.964 10.82 7.792 10.064 8.872 9.488C9.952 8.912 11.188 8.624 12.58 8.624C14.236 8.624 15.736 9.044 17.08 9.884C18.424 10.724 19.48 11.924 20.248 13.484C21.04 15.044 21.436 16.856 21.436 18.92C21.436 20.984 21.04 22.808 20.248 24.392C19.48 25.952 18.424 27.164 17.08 28.028C15.736 28.868 14.236 29.288 12.58 29.288C11.164 29.288 9.928 29.012 8.872 28.46C7.816 27.884 6.988 27.128 6.388 26.192V29H0.232V2.36H6.388V11.756ZM15.172 18.92C15.172 17.384 14.74 16.184 13.876 15.32C13.036 14.432 11.992 13.988 10.744 13.988C9.52 13.988 8.476 14.432 7.612 15.32C6.772 16.208 6.352 17.42 6.352 18.956C6.352 20.492 6.772 21.704 7.612 22.592C8.476 23.48 9.52 23.924 10.744 23.924C11.968 23.924 13.012 23.48 13.876 22.592C14.74 21.68 15.172 20.456 15.172 18.92ZM45.1856 8.912L32.5856 38.54H25.9616L30.5696 28.316L22.3976 8.912H29.2736L33.9176 21.476L38.5256 8.912H45.1856ZM73.2206 3.728V8.66H66.5246V29H60.3686V8.66H53.6726V3.728H73.2206ZM95.2461 18.632C95.2461 19.208 95.2101 19.808 95.1381 20.432H81.2061C81.3021 21.68 81.6981 22.64 82.3941 23.312C83.1141 23.96 83.9901 24.284 85.0221 24.284C86.5581 24.284 87.6261 23.636 88.2261 22.34H94.7781C94.4421 23.66 93.8301 24.848 92.9421 25.904C92.0781 26.96 90.9861 27.788 89.6661 28.388C88.3461 28.988 86.8701 29.288 85.2381 29.288C83.2701 29.288 81.5181 28.868 79.9821 28.028C78.4461 27.188 77.2461 25.988 76.3821 24.428C75.5181 22.868 75.0861 21.044 75.0861 18.956C75.0861 16.868 75.5061 15.044 76.3461 13.484C77.2101 11.924 78.4101 10.724 79.9461 9.884C81.4821 9.044 83.2461 8.624 85.2381 8.624C87.1821 8.624 88.9101 9.032 90.4221 9.848C91.9341 10.664 93.1101 11.828 93.9501 13.34C94.8141 14.852 95.2461 16.616 95.2461 18.632ZM88.9461 17.012C88.9461 15.956 88.5861 15.116 87.8661 14.492C87.1461 13.868 86.2461 13.556 85.1661 13.556C84.1341 13.556 83.2581 13.856 82.5381 14.456C81.8421 15.056 81.4101 15.908 81.2421 17.012H88.9461ZM97.2697 18.92C97.2697 16.856 97.6537 15.044 98.4217 13.484C99.2137 11.924 100.282 10.724 101.626 9.884C102.97 9.044 104.47 8.624 106.126 8.624C107.542 8.624 108.778 8.912 109.834 9.488C110.914 10.064 111.742 10.82 112.318 11.756V8.912H118.474V29H112.318V26.156C111.718 27.092 110.878 27.848 109.798 28.424C108.742 29 107.506 29.288 106.09 29.288C104.458 29.288 102.97 28.868 101.626 28.028C100.282 27.164 99.2137 25.952 98.4217 24.392C97.6537 22.808 97.2697 20.984 97.2697 18.92ZM112.318 18.956C112.318 17.42 111.886 16.208 111.022 15.32C110.182 14.432 109.15 13.988 107.926 13.988C106.702 13.988 105.658 14.432 104.794 15.32C103.954 16.184 103.534 17.384 103.534 18.92C103.534 20.456 103.954 21.68 104.794 22.592C105.658 23.48 106.702 23.924 107.926 23.924C109.15 23.924 110.182 23.48 111.022 22.592C111.886 21.704 112.318 20.492 112.318 18.956ZM148.559 8.696C151.055 8.696 153.035 9.452 154.499 10.964C155.987 12.476 156.731 14.576 156.731 17.264V29H150.611V18.092C150.611 16.796 150.263 15.8 149.567 15.104C148.895 14.384 147.959 14.024 146.759 14.024C145.559 14.024 144.611 14.384 143.915 15.104C143.243 15.8 142.907 16.796 142.907 18.092V29H136.787V18.092C136.787 16.796 136.439 15.8 135.743 15.104C135.071 14.384 134.135 14.024 132.935 14.024C131.735 14.024 130.787 14.384 130.091 15.104C129.419 15.8 129.083 16.796 129.083 18.092V29H122.927V8.912H129.083V11.432C129.707 10.592 130.523 9.932 131.531 9.452C132.539 8.948 133.679 8.696 134.951 8.696C136.463 8.696 137.807 9.02 138.983 9.668C140.183 10.316 141.119 11.24 141.791 12.44C142.487 11.336 143.435 10.436 144.635 9.74C145.835 9.044 147.143 8.696 148.559 8.696ZM184.398 24.536H174.966L173.454 29H167.01L176.154 3.728H183.282L192.426 29H185.91L184.398 24.536ZM182.814 19.784L179.682 10.532L176.586 19.784H182.814ZM203.381 29.288C201.629 29.288 200.069 28.988 198.701 28.388C197.333 27.788 196.253 26.972 195.461 25.94C194.669 24.884 194.225 23.708 194.129 22.412H200.213C200.285 23.108 200.609 23.672 201.185 24.104C201.761 24.536 202.469 24.752 203.309 24.752C204.077 24.752 204.665 24.608 205.073 24.32C205.505 24.008 205.721 23.612 205.721 23.132C205.721 22.556 205.421 22.136 204.821 21.872C204.221 21.584 203.249 21.272 201.905 20.936C200.465 20.6 199.265 20.252 198.305 19.892C197.345 19.508 196.517 18.92 195.821 18.128C195.125 17.312 194.777 16.22 194.777 14.852C194.777 13.7 195.089 12.656 195.713 11.72C196.361 10.76 197.297 10.004 198.521 9.452C199.769 8.9 201.245 8.624 202.949 8.624C205.469 8.624 207.449 9.248 208.889 10.496C210.353 11.744 211.193 13.4 211.409 15.464H205.721C205.625 14.768 205.313 14.216 204.785 13.808C204.281 13.4 203.609 13.196 202.769 13.196C202.049 13.196 201.497 13.34 201.113 13.628C200.729 13.892 200.537 14.264 200.537 14.744C200.537 15.32 200.837 15.752 201.437 16.04C202.061 16.328 203.021 16.616 204.317 16.904C205.805 17.288 207.017 17.672 207.953 18.056C208.889 18.416 209.705 19.016 210.401 19.856C211.121 20.672 211.493 21.776 211.517 23.168C211.517 24.344 211.181 25.4 210.509 26.336C209.861 27.248 208.913 27.968 207.665 28.496C206.441 29.024 205.013 29.288 203.381 29.288ZM218.379 6.824C217.299 6.824 216.411 6.512 215.715 5.888C215.043 5.24 214.707 4.448 214.707 3.512C214.707 2.552 215.043 1.76 215.715 1.136C216.411 0.487998 217.299 0.163998 218.379 0.163998C219.435 0.163998 220.299 0.487998 220.971 1.136C221.667 1.76 222.015 2.552 222.015 3.512C222.015 4.448 221.667 5.24 220.971 5.888C220.299 6.512 219.435 6.824 218.379 6.824ZM221.439 8.912V29H215.283V8.912H221.439ZM251.532 8.696C254.028 8.696 256.008 9.452 257.472 10.964C258.96 12.476 259.704 14.576 259.704 17.264V29H253.584V18.092C253.584 16.796 253.236 15.8 252.54 15.104C251.868 14.384 250.932 14.024 249.732 14.024C248.532 14.024 247.584 14.384 246.888 15.104C246.216 15.8 245.88 16.796 245.88 18.092V29H239.76V18.092C239.76 16.796 239.412 15.8 238.716 15.104C238.044 14.384 237.108 14.024 235.908 14.024C234.708 14.024 233.76 14.384 233.064 15.104C232.392 15.8 232.056 16.796 232.056 18.092V29H225.9V8.912H232.056V11.432C232.68 10.592 233.496 9.932 234.504 9.452C235.512 8.948 236.652 8.696 237.924 8.696C239.436 8.696 240.78 9.02 241.956 9.668C243.156 10.316 244.092 11.24 244.764 12.44C245.46 11.336 246.408 10.436 247.608 9.74C248.808 9.044 250.116 8.696 251.532 8.696ZM273.153 29.288C271.185 29.288 269.409 28.868 267.825 28.028C266.265 27.188 265.029 25.988 264.117 24.428C263.229 22.868 262.785 21.044 262.785 18.956C262.785 16.892 263.241 15.08 264.153 13.52C265.065 11.936 266.313 10.724 267.897 9.884C269.481 9.044 271.257 8.624 273.225 8.624C275.193 8.624 276.969 9.044 278.553 9.884C280.137 10.724 281.385 11.936 282.297 13.52C283.209 15.08 283.665 16.892 283.665 18.956C283.665 21.02 283.197 22.844 282.261 24.428C281.349 25.988 280.089 27.188 278.481 28.028C276.897 28.868 275.121 29.288 273.153 29.288ZM273.153 23.96C274.329 23.96 275.325 23.528 276.141 22.664C276.981 21.8 277.401 20.564 277.401 18.956C277.401 17.348 276.993 16.112 276.177 15.248C275.385 14.384 274.401 13.952 273.225 13.952C272.025 13.952 271.029 14.384 270.237 15.248C269.445 16.088 269.049 17.324 269.049 18.956C269.049 20.564 269.433 21.8 270.201 22.664C270.993 23.528 271.977 23.96 273.153 23.96ZM295.967 23.24L300.323 8.912H306.875L299.747 29H292.151L285.023 8.912H291.611L295.967 23.24Z" fill="#EDCB20"/>
</svg>
