<svg width="1129" height="1168" viewBox="0 0 1129 1168" fill="none" xmlns="http://www.w3.org/2000/svg">
<path d="M260.556 574.234H255.671C238.154 572.869 221.893 564.616 210.449 551.284C199.005 537.952 193.312 520.628 194.617 503.106L226.213 62.1431C226.844 53.4438 229.183 44.9542 233.095 37.1587C237.008 29.3633 242.417 22.4148 249.015 16.71C255.613 11.0052 263.269 6.65572 271.548 3.90999C279.827 1.16427 288.565 0.076068 297.264 0.707465C305.964 1.33886 314.453 3.67747 322.249 7.58986C330.044 11.5022 336.993 16.9118 342.697 23.5095C348.402 30.1073 352.752 37.7641 355.497 46.0427C358.243 54.3214 359.331 63.0599 358.7 71.7591L326.799 512.569C325.567 529.307 318.058 544.961 305.773 556.396C293.489 567.831 277.338 574.202 260.556 574.234V574.234Z" fill="#EDCB20"/>
<path d="M501.285 745.493C487.695 745.516 474.424 741.369 463.266 733.61C452.108 725.851 443.599 714.855 438.889 702.107C434.179 689.358 433.495 675.471 436.928 662.322C440.362 649.172 447.748 637.393 458.09 628.574L719.401 405.727C725.974 399.585 733.724 394.84 742.182 391.778C750.64 388.715 759.632 387.4 768.613 387.91C777.594 388.42 786.378 390.746 794.435 394.747C802.491 398.748 809.654 404.34 815.489 411.187C821.323 418.034 825.709 425.992 828.382 434.582C831.054 443.171 831.957 452.213 831.037 461.161C830.116 470.11 827.391 478.779 823.026 486.644C818.661 494.51 812.746 501.409 805.64 506.924L544.329 729.161C532.395 739.576 517.124 745.37 501.285 745.493V745.493Z" fill="#EDCB20"/>
<path d="M1061.89 1048.02H1057L617.717 1016.11C609.018 1015.48 600.528 1013.14 592.733 1009.23C584.937 1005.32 577.989 999.91 572.284 993.313C566.58 986.715 562.23 979.058 559.484 970.779C556.738 962.501 555.65 953.762 556.282 945.063C556.913 936.364 559.252 927.874 563.164 920.079C567.076 912.283 572.486 905.335 579.084 899.63C585.682 893.925 593.338 889.576 601.617 886.83C609.896 884.084 618.634 882.996 627.333 883.627L1066.62 915.528C1083.82 916.695 1099.89 924.507 1111.44 937.311C1122.98 950.116 1129.09 966.909 1128.48 984.139C1127.86 1001.37 1120.57 1017.68 1108.14 1029.63C1095.71 1041.58 1079.13 1048.23 1061.89 1048.17V1048.02Z" fill="#EDCB20"/>
<path d="M465.852 1167.83C449.204 1167.74 433.192 1161.42 420.962 1150.13C408.733 1138.83 401.171 1123.37 399.761 1106.78C369.234 745.491 68.543 703.517 55.8743 701.99C39.0793 699.135 24.0191 689.947 13.7955 676.32C3.57193 662.693 -1.03627 645.664 0.920175 628.74C2.87662 611.817 11.2486 596.289 24.3118 585.353C37.3749 574.418 54.1343 568.909 71.1378 569.961C216.446 586.751 499.737 718.17 531.943 1095.48C533.378 1113.11 527.752 1130.59 516.303 1144.07C504.854 1157.55 488.518 1165.94 470.889 1167.38L465.852 1167.83Z" fill="#EDCB20"/>
</svg>
