<svg width="3610" height="1710" viewBox="0 0 3610 1710" fill="none" xmlns="http://www.w3.org/2000/svg">
<path d="M2741.17 574.349H2736.29C2718.77 572.984 2702.51 564.732 2691.07 551.399C2679.62 538.067 2673.93 520.743 2675.23 503.221L2706.83 62.2583C2707.46 53.5591 2709.8 45.0694 2713.71 37.274C2717.62 29.4785 2723.03 22.53 2729.63 16.8252C2736.23 11.1204 2743.89 6.77095 2752.16 4.02523C2760.44 1.27951 2769.18 0.191302 2777.88 0.822699C2786.58 1.4541 2795.07 3.7927 2802.87 7.70509C2810.66 11.6175 2817.61 17.027 2823.31 23.6248C2829.02 30.2225 2833.37 37.8793 2836.11 46.158C2838.86 54.4367 2839.95 63.1751 2839.32 71.8743L2807.42 512.685C2806.18 529.422 2798.67 545.076 2786.39 556.511C2774.11 567.946 2757.95 574.318 2741.17 574.349Z" fill="#EDCB20"/>
<path d="M2981.9 750.608C2968.31 750.632 2955.04 746.484 2943.88 738.725C2932.72 730.966 2924.22 719.97 2919.51 707.222C2914.8 694.473 2914.11 680.587 2917.54 667.437C2920.98 654.287 2928.36 642.508 2938.71 633.69L3200.02 410.842C3206.59 404.7 3214.34 399.955 3222.8 396.893C3231.26 393.831 3240.25 392.515 3249.23 393.025C3258.21 393.536 3266.99 395.861 3275.05 399.862C3283.11 403.863 3290.27 409.456 3296.1 416.302C3301.94 423.149 3306.33 431.107 3309 439.697C3311.67 448.286 3312.57 457.328 3311.65 466.277C3310.73 475.225 3308.01 483.894 3303.64 491.759C3299.28 499.625 3293.36 506.524 3286.26 512.039L3024.95 734.276C3013.01 744.691 2997.74 750.485 2981.9 750.608Z" fill="#EDCB20"/>
<path d="M3542.5 1053.13H3537.62L3098.33 1021.23C3089.63 1020.6 3081.14 1018.26 3073.35 1014.35C3065.55 1010.44 3058.61 1005.03 3052.9 998.428C3047.2 991.83 3042.85 984.173 3040.1 975.895C3037.35 967.616 3036.27 958.877 3036.9 950.178C3037.53 941.479 3039.87 932.989 3043.78 925.194C3047.69 917.398 3053.1 910.45 3059.7 904.745C3066.3 899.04 3073.95 894.691 3082.23 891.945C3090.51 889.199 3099.25 888.111 3107.95 888.743L3547.23 920.643C3564.43 921.81 3580.51 929.622 3592.05 942.427C3603.6 955.231 3609.71 972.025 3609.09 989.254C3608.48 1006.48 3601.19 1022.8 3588.76 1034.75C3576.33 1046.7 3559.74 1053.35 3542.5 1053.28V1053.13Z" fill="#EDCB20"/>
<path d="M2946.47 1172.95C2929.82 1172.86 2913.81 1166.54 2901.58 1155.24C2889.35 1143.95 2881.79 1128.48 2880.38 1111.89C2849.85 750.607 2549.16 708.632 2536.49 707.106C2519.7 704.25 2504.64 695.063 2494.41 681.435C2484.19 667.808 2479.58 650.779 2481.54 633.856C2483.49 616.932 2491.87 601.404 2504.93 590.469C2517.99 579.533 2534.75 574.024 2551.75 575.076C2697.06 591.866 2980.35 723.285 3012.56 1100.6C3013.99 1118.23 3008.37 1135.71 2996.92 1149.19C2985.47 1162.67 2969.13 1171.05 2951.51 1172.49L2946.47 1172.95Z" fill="#EDCB20"/>
<path d="M359.587 582.707C385.942 611.606 399.119 651.342 399.119 701.915V924.61H282.964V717.637C284.359 695.946 277.303 674.558 263.274 657.956C248.844 644.291 229.726 636.674 209.852 636.674C189.978 636.674 170.859 644.291 156.429 657.956C142.439 674.519 135.384 695.845 136.74 717.484V924.457H19.9736V418.93H136.892V594.613C149.22 577.182 165.904 563.288 185.278 554.317C206.788 543.972 230.402 538.748 254.269 539.054C273.94 538.244 293.553 541.73 311.741 549.269C329.929 556.808 346.256 568.218 359.587 582.707Z" fill="#F8A700"/>
<path d="M479.413 630.177C492.883 602.064 514.055 578.352 540.467 561.796C566.011 545.767 595.636 537.447 625.79 537.832C650.361 537.275 674.672 542.946 696.46 554.317C715.452 564.114 731.474 578.819 742.861 596.902V543.327H859.627V924.915H742.861V870.882C731.052 889.115 714.69 903.951 695.392 913.925C673.597 925.277 649.29 930.947 624.722 930.41C594.73 930.691 565.302 922.26 540.009 906.141C513.623 889.286 492.476 865.39 478.955 837.15C463.651 804.838 456.074 769.408 456.823 733.663C456.115 697.872 463.854 662.417 479.413 630.177ZM718.592 664.977C710.956 657.008 701.786 650.667 691.634 646.335C681.483 642.003 670.56 639.769 659.523 639.769C648.485 639.769 637.562 642.003 627.411 646.335C617.259 650.667 608.089 657.008 600.453 664.977C592.056 674.246 585.587 685.091 581.42 696.883C577.254 708.675 575.474 721.177 576.184 733.663C574.84 759.056 583.56 783.954 600.453 802.96C608.044 811.007 617.199 817.419 627.356 821.801C637.514 826.183 648.46 828.443 659.523 828.443C670.585 828.443 681.531 826.183 691.689 821.801C701.846 817.419 711.002 811.007 718.592 802.96C734.146 783.445 742.616 759.229 742.616 734.274C742.616 709.319 734.146 685.103 718.592 665.588V664.977Z" fill="#F8A700"/>
<path d="M1108.43 554.318C1130.11 542.928 1154.32 537.254 1178.8 537.833C1209.06 537.389 1238.8 545.711 1264.43 561.797C1290.84 578.353 1312.01 602.065 1325.48 630.178C1340.84 662.364 1348.42 697.707 1347.61 733.359C1348.36 769.104 1340.79 804.534 1325.48 836.846C1311.96 865.085 1290.81 888.982 1264.43 905.837C1238.94 922.021 1209.3 930.452 1179.1 930.106C1154.74 930.592 1130.64 924.923 1109.04 913.621C1089.92 903.741 1073.59 889.2 1061.58 871.341V1106.4H943.894V543.328H1060.66V596.903C1072.62 578.803 1089.08 564.127 1108.43 554.318ZM1203.37 664.673C1195.72 656.573 1186.46 650.162 1176.18 645.851C1165.9 641.54 1154.84 639.425 1143.69 639.641C1132.6 639.481 1121.59 641.654 1111.39 646.018C1101.19 650.383 1092.02 656.843 1084.47 664.978C1069.02 684.539 1060.62 708.738 1060.62 733.664C1060.62 758.591 1069.02 782.789 1084.47 802.35C1092.1 810.41 1101.3 816.83 1111.49 821.217C1121.69 825.604 1132.67 827.867 1143.77 827.867C1154.87 827.867 1165.85 825.604 1176.05 821.217C1186.24 816.83 1195.44 810.41 1203.07 802.35C1220.12 783.418 1228.95 758.496 1227.64 733.054C1228.31 720.618 1226.51 708.173 1222.35 696.436C1218.18 684.7 1211.73 673.905 1203.37 664.673Z" fill="#F8A700"/>
<path d="M1572.29 554.318C1593.96 542.928 1618.18 537.254 1642.65 537.833C1672.85 537.453 1702.53 545.772 1728.13 561.797C1754.51 578.385 1775.68 602.089 1789.18 630.178C1804.59 662.351 1812.22 697.694 1811.47 733.359C1812.17 769.116 1804.54 804.546 1789.18 836.846C1775.66 865.085 1754.51 888.982 1728.13 905.837C1702.58 922.025 1672.89 930.456 1642.65 930.106C1618.28 930.592 1594.19 924.923 1572.59 913.621C1553.5 903.698 1537.18 889.166 1525.12 871.341V1106.4H1408.36V543.328H1525.12V596.903C1536.95 578.914 1553.19 564.253 1572.29 554.318ZM1667.68 664.673C1660 656.569 1650.71 650.156 1640.41 645.846C1630.11 641.536 1619.02 639.423 1607.85 639.641C1596.78 639.493 1585.8 641.672 1575.63 646.036C1565.45 650.401 1556.3 656.854 1548.78 664.978C1533.23 684.493 1524.76 708.709 1524.76 733.664C1524.76 758.619 1533.23 782.835 1548.78 802.35C1556.4 810.406 1565.58 816.823 1575.76 821.208C1585.95 825.594 1596.92 827.856 1608 827.856C1619.09 827.856 1630.06 825.594 1640.24 821.208C1650.43 816.823 1659.61 810.406 1667.23 802.35C1675.72 793.007 1682.28 782.072 1686.53 770.177C1690.77 758.283 1692.62 745.665 1691.95 733.054C1692.62 720.618 1690.82 708.173 1686.66 696.436C1682.49 684.7 1676.04 673.905 1667.68 664.673Z" fill="#F8A700"/>
<path d="M2261.75 543.328L2022.57 1105.64H1896.79L1984.25 911.637L1829.18 543.328H1959.68L2047.9 781.744L2135.36 543.328H2261.75Z" fill="#F8A700"/>
<path d="M86.2388 1691.14C62.219 1681 41.1995 1664.86 25.1848 1644.28C10.4499 1625.05 1.69218 1601.91 0 1577.74H115.392C115.986 1584.09 117.944 1590.24 121.131 1595.78C124.318 1601.31 128.66 1606.09 133.861 1609.79C145.553 1618.26 159.726 1622.61 174.157 1622.15C186.063 1622.86 197.898 1619.88 208.042 1613.6C211.74 1611.19 214.77 1607.88 216.852 1603.99C218.933 1600.09 219.997 1595.74 219.947 1591.32C219.944 1586.01 218.3 1580.82 215.241 1576.48C212.181 1572.14 207.854 1568.84 202.852 1567.05C184.947 1559.73 166.466 1553.91 147.598 1549.65C124.342 1544.62 101.486 1537.89 79.2176 1529.5C60.9767 1522.43 44.7727 1510.94 32.0534 1496.08C18.2891 1478.78 11.2416 1457.1 12.2108 1435.02C12.0782 1413.7 18.4111 1392.84 30.3744 1375.19C43.7046 1356.17 62.184 1341.34 83.6441 1332.45C110.21 1321.59 138.751 1316.39 167.441 1317.19C208.16 1314.93 248.309 1327.57 280.391 1352.75C294.134 1364.57 305.405 1378.98 313.552 1395.17C321.699 1411.36 326.562 1429 327.86 1447.08H219.489C218.817 1440.95 216.933 1435.01 213.945 1429.61C210.958 1424.21 206.928 1419.46 202.089 1415.64C190.941 1407.43 177.297 1403.33 163.472 1404.04C152.442 1403.35 141.468 1406.07 132.029 1411.82C128.568 1414.22 125.763 1417.44 123.87 1421.2C121.977 1424.96 121.056 1429.14 121.192 1433.34C121.212 1438.75 122.891 1444.02 126.003 1448.44C129.115 1452.87 133.509 1456.23 138.593 1458.07C156.124 1465.29 174.325 1470.76 192.931 1474.4C216.329 1480.22 239.366 1487.4 261.922 1495.92C280.072 1503.29 296.118 1515.04 308.628 1530.11C322.851 1548.04 330.26 1570.43 329.539 1593.3C329.817 1614.74 323.239 1635.7 310.765 1653.14C296.94 1671.63 278.227 1685.91 256.732 1694.35C230.835 1704.94 203.047 1710.13 175.072 1709.61C144.494 1709.75 114.228 1703.46 86.2388 1691.14Z" fill="#F8A700"/>
<path d="M777.653 1321.46V1703.05H660.888V1651.15C648.416 1668.47 631.844 1682.42 612.655 1691.75C591.747 1702.11 568.674 1707.34 545.343 1707.02C518.619 1707.4 492.276 1700.66 469.025 1687.48C446.456 1674.31 428.333 1654.69 416.977 1631.16C404.175 1604.08 397.852 1574.4 398.508 1544.46V1321.61H514.663V1527.98C513.39 1549.58 520.497 1570.85 534.506 1587.35C549.021 1600.85 568.107 1608.35 587.928 1608.35C607.749 1608.35 626.835 1600.85 641.35 1587.35C655.429 1570.89 662.546 1549.59 661.193 1527.98V1321.46H777.653Z" fill="#F8A700"/>
<path d="M1200.95 1360.84C1227.72 1389.64 1241.05 1429.37 1240.95 1480.05V1702.74H1124.79V1495.77C1126.13 1474.11 1119.02 1452.77 1104.95 1436.24C1090.53 1422.54 1071.41 1414.9 1051.52 1414.9C1031.64 1414.9 1012.51 1422.54 998.103 1436.24C984.085 1452.8 976.979 1474.12 978.26 1495.77V1702.74H861.494V1321.16H978.26V1371.68C990.562 1354.52 1007.06 1340.8 1026.19 1331.84C1047.23 1321.55 1070.38 1316.32 1093.8 1316.58C1113.81 1315.7 1133.77 1319.21 1152.28 1326.85C1170.79 1334.5 1187.4 1346.1 1200.95 1360.84Z" fill="#F8A700"/>
<path d="M1388.53 1691.14C1364.51 1681 1343.49 1664.86 1327.47 1644.28C1312.74 1625.05 1303.98 1601.91 1302.29 1577.74H1417.07C1417.66 1584.09 1419.62 1590.24 1422.81 1595.78C1426 1601.31 1430.34 1606.09 1435.54 1609.79C1447.23 1618.26 1461.4 1622.61 1475.83 1622.15C1487.74 1622.86 1499.58 1619.88 1509.72 1613.6C1513.42 1611.19 1516.45 1607.88 1518.53 1603.99C1520.61 1600.09 1521.68 1595.74 1521.62 1591.32C1521.62 1586.01 1519.98 1580.82 1516.92 1576.48C1513.86 1572.14 1509.53 1568.84 1504.53 1567.05C1486.62 1559.73 1468.14 1553.91 1449.28 1549.65C1426.02 1544.62 1403.16 1537.89 1380.9 1529.5C1362.65 1522.43 1346.45 1510.94 1333.73 1496.08C1319.97 1478.79 1312.92 1457.1 1313.89 1435.02C1313.76 1413.7 1320.09 1392.84 1332.05 1375.19C1345.38 1356.17 1363.86 1341.34 1385.32 1332.45C1411.83 1321.59 1440.32 1316.39 1468.97 1317.19C1509.74 1314.89 1549.95 1327.54 1582.07 1352.75C1595.81 1364.57 1607.08 1378.98 1615.23 1395.17C1623.38 1411.36 1628.24 1429 1629.54 1447.08H1521.62C1520.95 1440.95 1519.07 1435.01 1516.08 1429.61C1513.09 1424.21 1509.06 1419.46 1504.22 1415.64C1493.04 1407.51 1479.42 1403.42 1465.61 1404.04C1454.58 1403.33 1443.6 1406.05 1434.16 1411.82C1430.7 1414.22 1427.9 1417.44 1426.01 1421.2C1424.11 1424.96 1423.19 1429.14 1423.33 1433.34C1423.35 1438.75 1425.03 1444.02 1428.14 1448.44C1431.25 1452.87 1435.65 1456.23 1440.73 1458.07C1458.21 1465.27 1476.36 1470.74 1494.91 1474.4C1518.36 1480.22 1541.45 1487.41 1564.06 1495.92C1582.21 1503.29 1598.25 1515.04 1610.76 1530.11C1624.99 1548.04 1632.4 1570.43 1631.67 1593.3C1631.95 1614.74 1625.37 1635.7 1612.9 1653.14C1599.08 1671.63 1580.36 1685.91 1558.87 1694.35C1532.97 1704.94 1505.18 1710.13 1477.21 1709.61C1446.68 1709.73 1416.47 1703.44 1388.53 1691.14Z" fill="#F8A700"/>
<path d="M2042.87 1360.84C2069.42 1389.69 2082.55 1429.37 2082.55 1480.05V1702.74H1966.55V1495.77C1967.89 1474.11 1960.78 1452.77 1946.71 1436.24C1932.29 1422.54 1913.17 1414.9 1893.28 1414.9C1873.4 1414.9 1854.27 1422.54 1839.86 1436.24C1825.84 1452.8 1818.74 1474.12 1820.02 1495.77V1702.74H1703.25V1197.22H1820.02V1372.75C1832.54 1355.44 1849.24 1341.58 1868.56 1332.45C1890.06 1322.09 1913.68 1316.87 1937.55 1317.19C1957.22 1316.36 1976.84 1319.83 1995.03 1327.37C2013.22 1334.91 2029.55 1346.34 2042.87 1360.84Z" fill="#F8A700"/>
<path d="M2172.61 1263.77C2166.34 1258.15 2161.35 1251.24 2157.98 1243.53C2154.61 1235.81 2152.94 1227.46 2153.07 1219.04C2152.83 1210.45 2154.45 1201.91 2157.83 1194.01C2161.2 1186.1 2166.24 1179.02 2172.61 1173.25C2186.33 1160.86 2204.36 1154.34 2222.83 1155.09C2241.05 1154.46 2258.8 1160.98 2272.28 1173.25C2278.65 1179.02 2283.69 1186.1 2287.07 1194.01C2290.44 1201.91 2292.06 1210.45 2291.82 1219.04C2291.96 1227.46 2290.28 1235.81 2286.91 1243.53C2283.54 1251.24 2278.55 1258.15 2272.28 1263.77C2258.8 1276.04 2241.05 1282.56 2222.83 1281.93C2204.36 1282.67 2186.33 1276.15 2172.61 1263.77ZM2280.83 1321.46V1703.05H2164.06V1321.46H2280.83Z" fill="#F8A700"/>
<path d="M2704.86 1360.84C2733 1393.97 2747.32 1436.65 2744.85 1480.05V1702.75H2628.7V1495.77C2629.98 1474.12 2622.87 1452.8 2608.85 1436.24C2594.44 1422.54 2575.32 1414.9 2555.43 1414.9C2535.55 1414.9 2516.42 1422.54 2502.01 1436.24C2487.94 1452.77 2480.82 1474.11 2482.17 1495.77V1702.75H2365.25V1321.16H2482.17V1371.68C2494.39 1354.5 2510.84 1340.77 2529.94 1331.84C2550.98 1321.55 2574.14 1316.32 2597.56 1316.58C2617.58 1315.74 2637.55 1319.26 2656.08 1326.91C2674.61 1334.55 2691.25 1346.13 2704.86 1360.84Z" fill="#F8A700"/>
<path d="M3183.53 1540.19H2919.01C2919.41 1560.52 2927.6 1579.92 2941.91 1594.37C2955.28 1607 2973.12 1613.81 2991.51 1613.3C3004.28 1614.32 3017.04 1611.31 3028 1604.68C3038.95 1598.05 3047.55 1588.14 3052.57 1576.36H3176.96C3170.51 1601.26 3158.51 1624.37 3141.86 1643.98C3124.84 1664.24 3103.44 1680.37 3079.28 1691.14C3052.86 1702.85 3024.22 1708.68 2995.33 1708.24C2960.55 1708.9 2926.19 1700.65 2895.51 1684.28C2866.56 1668.6 2842.8 1644.84 2827.12 1615.9C2811.06 1583.65 2802.7 1548.12 2802.7 1512.1C2802.7 1476.08 2811.06 1440.55 2827.12 1408.31C2842.6 1379.37 2866.21 1355.6 2895.05 1339.93C2926.02 1323.59 2960.62 1315.34 2995.63 1315.97C3029.84 1315.34 3063.66 1323.38 3093.93 1339.32C3122.3 1354.44 3145.68 1377.44 3161.24 1405.56C3177.95 1436.35 3186.32 1470.98 3185.51 1506C3185.43 1517.42 3184.77 1528.83 3183.53 1540.19ZM3066 1475.17C3066.37 1466.17 3064.71 1457.2 3061.15 1448.93C3057.58 1440.66 3052.19 1433.3 3045.39 1427.39C3031.16 1415.31 3012.92 1409 2994.26 1409.69C2976.19 1409.11 2958.53 1415.19 2944.65 1426.78C2930.63 1439.25 2921.76 1456.5 2919.77 1475.17H3066Z" fill="#F8A700"/>
</svg>
