<svg width="57" height="51" viewBox="0 0 57 51" fill="none" xmlns="http://www.w3.org/2000/svg">
<path d="M28.2026 0C12.8451 0 0.399292 6.3745 0.399292 14.2388C0.399292 22.103 12.8451 28.4794 28.2026 28.4794C43.5601 28.4794 56.0059 22.103 56.0059 14.2388C56.0059 6.3745 43.5583 0 28.2026 0ZM28.2026 11.9405C23.3618 11.9405 19.4369 10.7277 19.4369 9.23049C19.4369 7.73325 23.3618 6.52048 28.2026 6.52048C33.0435 6.52048 36.9683 7.73512 36.9683 9.23049C36.9683 10.7259 33.0435 11.9405 28.2026 11.9405Z" fill="#EE702A"/>
<path d="M1.87857 30.7109C1.87857 30.7109 27.7923 46.0876 54.3864 30.7109C54.3864 30.7109 58.4606 36.1384 53.6881 42.4755C48.9157 48.8126 33.6014 50.4708 28.1973 50.2443C22.7931 50.0179 -5.39349 49.0353 1.87857 30.7109Z" fill="#EE702A"/>
<path d="M55.3886 24.9816C55.268 25.3915 54.4888 27.57 50.9023 30.1883C49.0217 31.5639 47.5227 31.038 46.3188 30.615C44.7226 30.0535 42.914 29.4209 38.3737 32.6849C38.084 32.8945 37.8338 33.0929 37.5999 33.2688C36.7001 33.9594 35.8615 34.6107 34.0835 35.1198C32.3947 35.62 30.6494 35.8837 28.8936 35.904C25.5806 35.904 23.871 34.811 23.6856 34.6875C23.3215 34.4196 22.9763 34.125 22.6527 33.806C21.1644 32.4117 18.9186 30.3043 12.6884 31.3954C7.89799 32.2376 4.78294 30.4989 3.01396 28.8932C1.85056 27.8466 0.919706 26.5496 0.285819 25.092C0.15242 24.7466 0.156445 24.3601 0.297007 24.0177C0.43757 23.6754 0.703156 23.4051 1.03534 23.2663C1.36752 23.1276 1.73909 23.1318 2.06831 23.278C2.39753 23.4242 2.65742 23.7004 2.79082 24.0458C2.8844 24.2816 5.17525 29.8664 12.2404 28.6274C19.7554 27.3173 22.6994 30.0704 24.4594 31.7192C24.6805 31.9377 24.9137 32.1427 25.1577 32.3331C25.3376 32.4323 28.0568 33.9276 33.3691 32.4117C34.6594 32.0374 35.1597 31.6631 35.9893 31.0155C36.2376 30.8283 36.5165 30.6075 36.8387 30.3754C42.4929 26.3104 45.203 27.2612 47.1808 27.9555C48.2353 28.3298 48.5898 28.4496 49.3493 27.8919C52.1188 25.8669 52.7684 24.2386 52.8152 24.1301C52.8965 23.8669 53.0508 23.6347 53.2587 23.4626C53.4667 23.2906 53.7189 23.1864 53.9837 23.1632C54.2485 23.1399 54.514 23.1987 54.7467 23.3322C54.9794 23.4656 55.169 23.6677 55.2914 23.913C55.4583 24.2418 55.4932 24.626 55.3886 24.9816Z" fill="#EE702A"/>
</svg>
