<svg width="41" height="37" viewBox="0 0 41 37" fill="none" xmlns="http://www.w3.org/2000/svg">
<path d="M32.9652 29.6111C31.0781 29.6111 29.6124 31.1408 29.6124 33.0278C29.6124 34.9148 31.1421 36.4444 32.9652 36.4444C34.7882 36.4444 36.3179 34.9148 36.3179 33.0278C36.3179 31.1408 34.9156 29.6111 32.9652 29.6111ZM12.4643 29.6111C10.5772 29.6111 9.11151 31.1408 9.11151 33.0278C9.11151 34.9148 10.642 36.4444 12.4643 36.4444C14.2866 36.4444 15.817 34.9148 15.817 33.0278C15.817 31.1408 14.4147 29.6111 12.4643 29.6111ZM40.5391 4.32279C40.1042 3.74666 39.4415 3.41667 38.7196 3.41667H8.62034L8.51357 1.38873C8.35696 0.582969 7.65225 0 6.83363 0H1.64434C0.765225 0 0 0.765191 0 1.64427C0 2.52335 0.765225 3.41667 1.64434 3.41667H5.35586L9.64681 25.9453C9.86606 26.7497 10.5708 27.3333 11.3894 27.3333H34.7376C35.6808 27.3333 36.446 26.5681 36.446 25.6891C36.446 24.6783 35.6844 23.9167 34.7376 23.9167H12.8059L12.1511 20.5H34.8159C35.8332 20.5 36.7265 19.8259 37.0063 18.8479L40.9114 6.38418C41.1086 5.62682 40.9733 4.89936 40.5391 4.32279Z" fill="#F8A700"/>
</svg>
