<svg width="52" height="52" viewBox="0 0 52 52" fill="none" xmlns="http://www.w3.org/2000/svg">
<path d="M25.5601 38.9005C32.6568 38.9005 38.4098 33.1475 38.4098 26.0508C38.4098 18.9542 32.6568 13.2012 25.5601 13.2012C18.4634 13.2012 12.7104 18.9542 12.7104 26.0508C12.7104 33.1475 18.4634 38.9005 25.5601 38.9005Z" fill="#F8A700"/>
<path d="M25.0381 11.8643H24.9991C24.7715 11.8593 24.5471 11.8094 24.3387 11.7176C24.1304 11.6258 23.9422 11.4938 23.7848 11.3292C23.6275 11.1647 23.5041 10.9707 23.4218 10.7584C23.3394 10.5462 23.2997 10.3197 23.3049 10.0921L23.4825 2.45728C23.4932 1.9976 23.686 1.56097 24.0185 1.24344C24.3511 0.925918 24.7962 0.753506 25.2558 0.764136C25.7155 0.774766 26.1522 0.967567 26.4697 1.30013C26.7872 1.63268 26.9596 2.07776 26.949 2.53744L26.7713 10.1723C26.7606 10.6248 26.5732 11.0551 26.2494 11.3713C25.9255 11.6875 25.4907 11.8645 25.0381 11.8643Z" fill="#F8A700"/>
<path d="M9.3696 26.586H9.32844L1.6936 26.4083C1.46599 26.403 1.24165 26.353 1.03338 26.261C0.82511 26.1691 0.636994 26.037 0.479771 25.8723C0.322549 25.7077 0.199299 25.5136 0.117059 25.3013C0.0348196 25.089 -0.00480008 24.8626 0.000463395 24.635C0.00572687 24.4074 0.0557707 24.1831 0.147736 23.9748C0.239701 23.7665 0.371787 23.5784 0.536453 23.4212C0.70112 23.264 0.895141 23.1407 1.10744 23.0585C1.31974 22.9762 1.54615 22.9366 1.77376 22.9419L9.4086 23.1174C9.86828 23.1225 10.3071 23.3101 10.6285 23.6388C10.9498 23.9675 11.1275 24.4104 11.1223 24.8701C11.1172 25.3298 10.9296 25.7686 10.6009 26.0899C10.2722 26.4113 9.82928 26.589 9.3696 26.5838V26.586Z" fill="#F8A700"/>
<path d="M49.5565 27.0037H49.5153L41.8805 26.8282C41.4208 26.8176 40.9842 26.6248 40.6667 26.2922C40.3491 25.9597 40.1767 25.5146 40.1874 25.0549C40.198 24.5953 40.3908 24.1586 40.7233 23.8411C41.0559 23.5236 41.501 23.3512 41.9607 23.3618L49.5955 23.5394C50.0552 23.5446 50.494 23.7322 50.8153 24.0609C51.1367 24.3896 51.3144 24.8325 51.3092 25.2922C51.304 25.7518 51.1165 26.1906 50.7878 26.512C50.4591 26.8334 50.0162 27.0111 49.5565 27.0059V27.0037Z" fill="#F8A700"/>
<path d="M13.5252 16.3001C13.208 16.2995 12.897 16.2118 12.6261 16.0466L6.10272 12.0753C5.70883 11.8366 5.42592 11.4512 5.31622 11.0038C5.20652 10.5565 5.27901 10.0839 5.51776 9.69C5.7565 9.29611 6.14194 9.0132 6.58928 8.9035C7.03662 8.7938 7.50922 8.86629 7.9031 9.10504L14.4287 13.0763C14.7525 13.2727 15.003 13.5698 15.142 13.922C15.2811 14.2743 15.3008 14.6625 15.1984 15.0271C15.0959 15.3917 14.8769 15.7127 14.5747 15.941C14.2726 16.1693 13.904 16.2924 13.5252 16.2914V16.3001Z" fill="#F8A700"/>
<path d="M37.1012 16.7101C36.7227 16.7106 36.3544 16.5872 36.0526 16.3587C35.7508 16.1302 35.5321 15.8092 35.4299 15.4447C35.3278 15.0802 35.3477 14.6923 35.4868 14.3402C35.6258 13.9881 35.8763 13.6913 36.1999 13.495L42.7233 9.53671C42.9178 9.40836 43.1361 9.32053 43.3653 9.27847C43.5944 9.23641 43.8297 9.24099 44.0571 9.29193C44.2845 9.34287 44.4992 9.43913 44.6885 9.57495C44.8778 9.71077 45.0378 9.88336 45.1589 10.0824C45.28 10.2815 45.3597 10.5029 45.3933 10.7335C45.4269 10.964 45.4136 11.199 45.3543 11.4243C45.295 11.6496 45.1909 11.8607 45.0482 12.0448C44.9055 12.229 44.7271 12.3825 44.5237 12.4962L38.0003 16.4674C37.7286 16.6294 37.4175 16.7134 37.1012 16.7101Z" fill="#F8A700"/>
<path d="M25.9522 51.5056C25.4992 51.5057 25.0642 51.3284 24.7402 51.0118C24.4163 50.6951 24.2292 50.2642 24.219 49.8114L24.0413 42.1765C24.0309 41.7172 24.2032 41.2725 24.5205 40.9401C24.8378 40.6078 25.2741 40.4151 25.7334 40.4043H25.7746C26.2272 40.4042 26.6619 40.5811 26.9858 40.8973C27.3097 41.2135 27.497 41.6438 27.5078 42.0964L27.6833 49.7312C27.6937 50.1905 27.5214 50.6352 27.2041 50.9676C26.8868 51.2999 26.4506 51.4926 25.9912 51.5034L25.9522 51.5056Z" fill="#F8A700"/>
<path d="M7.00401 43.5658C6.62614 43.5656 6.2587 43.4418 5.95766 43.2134C5.65661 42.9851 5.43845 42.6646 5.33639 42.3007C5.23433 41.9369 5.25397 41.5497 5.39231 41.198C5.53066 40.8464 5.78013 40.5496 6.10274 40.3529L12.6261 36.3816C13.0189 36.1426 13.4905 36.0694 13.9372 36.178C14.3839 36.2867 14.7692 36.5684 15.0082 36.9612C15.2473 37.3539 15.3205 37.8255 15.2118 38.2722C15.1031 38.719 14.8214 39.1042 14.4287 39.3433L7.90312 43.3145C7.6324 43.4798 7.32118 43.5668 7.00401 43.5658Z" fill="#F8A700"/>
<path d="M44.4109 42.8646C44.0939 42.8647 43.7829 42.7778 43.5118 42.6133L36.9906 38.6421C36.7961 38.5237 36.6269 38.3682 36.4925 38.1845C36.3581 38.0007 36.2613 37.7923 36.2075 37.5711C36.1536 37.3499 36.1439 37.1202 36.1789 36.8953C36.2138 36.6703 36.2927 36.4545 36.411 36.26C36.5294 36.0655 36.6849 35.8963 36.8687 35.7619C37.0524 35.6275 37.2609 35.5307 37.4821 35.4769C37.7033 35.4231 37.9329 35.4133 38.1578 35.4483C38.3828 35.4832 38.5987 35.5621 38.7931 35.6804L45.3144 39.6517C45.6371 39.8485 45.8867 40.1455 46.025 40.4974C46.1633 40.8492 46.1828 41.2366 46.0804 41.6006C45.9781 41.9645 45.7596 42.285 45.4582 42.5132C45.1567 42.7415 44.789 42.8649 44.4109 42.8646Z" fill="#F8A700"/>
</svg>
