<svg width="48" height="37" viewBox="0 0 48 37" fill="none" xmlns="http://www.w3.org/2000/svg">
<path d="M46.8 25.4375H45.6V17.6256C45.6 16.7078 45.2175 15.8262 44.5425 15.1758L37.05 7.95645C36.375 7.30605 35.46 6.9375 34.5075 6.9375H31.2V3.46875C31.2 1.55371 29.5875 0 27.6 0H3.6C1.6125 0 0 1.55371 0 3.46875V26.5938C0 28.5088 1.6125 30.0625 3.6 30.0625H4.8C4.8 33.8926 8.025 37 12 37C15.975 37 19.2 33.8926 19.2 30.0625H28.8C28.8 33.8926 32.025 37 36 37C39.975 37 43.2 33.8926 43.2 30.0625H46.8C47.46 30.0625 48 29.5422 48 28.9062V26.5938C48 25.9578 47.46 25.4375 46.8 25.4375ZM12 33.5312C10.0125 33.5312 8.4 31.9775 8.4 30.0625C8.4 28.1475 10.0125 26.5938 12 26.5938C13.9875 26.5938 15.6 28.1475 15.6 30.0625C15.6 31.9775 13.9875 33.5312 12 33.5312ZM36 33.5312C34.0125 33.5312 32.4 31.9775 32.4 30.0625C32.4 28.1475 34.0125 26.5938 36 26.5938C37.9875 26.5938 39.6 28.1475 39.6 30.0625C39.6 31.9775 37.9875 33.5312 36 33.5312ZM42 18.5H31.2V10.4062H34.5075L42 17.6256V18.5Z" fill="#EE702A"/>
</svg>
