<svg width="375" height="944" viewBox="0 0 375 944" fill="none" xmlns="http://www.w3.org/2000/svg">
<rect width="375" height="944" fill="white"/>
<rect x="1" y="107" width="373" height="836" fill="#FAF6F2" stroke="black" stroke-width="2"/>
<path d="M44.492 698.864C44.492 700.328 44.156 701.672 43.484 702.896C42.812 704.096 41.78 705.068 40.388 705.812C38.996 706.556 37.268 706.928 35.204 706.928H31.388V716H25.232V690.728H35.204C37.22 690.728 38.924 691.076 40.316 691.772C41.708 692.468 42.752 693.428 43.448 694.652C44.144 695.876 44.492 697.28 44.492 698.864ZM34.736 702.032C35.912 702.032 36.788 701.756 37.364 701.204C37.94 700.652 38.228 699.872 38.228 698.864C38.228 697.856 37.94 697.076 37.364 696.524C36.788 695.972 35.912 695.696 34.736 695.696H31.388V702.032H34.736ZM53.8528 699.26C54.5728 698.156 55.4728 697.292 56.5528 696.668C57.6328 696.02 58.8328 695.696 60.1528 695.696V702.212H58.4608C56.9248 702.212 55.7728 702.548 55.0048 703.22C54.2368 703.868 53.8528 705.02 53.8528 706.676V716H47.6968V695.912H53.8528V699.26ZM72.2393 716.288C70.2713 716.288 68.4953 715.868 66.9113 715.028C65.3513 714.188 64.1153 712.988 63.2033 711.428C62.3153 709.868 61.8713 708.044 61.8713 705.956C61.8713 703.892 62.3273 702.08 63.2393 700.52C64.1513 698.936 65.3993 697.724 66.9833 696.884C68.5673 696.044 70.3433 695.624 72.3113 695.624C74.2793 695.624 76.0553 696.044 77.6393 696.884C79.2233 697.724 80.4713 698.936 81.3833 700.52C82.2953 702.08 82.7513 703.892 82.7513 705.956C82.7513 708.02 82.2833 709.844 81.3473 711.428C80.4353 712.988 79.1753 714.188 77.5673 715.028C75.9833 715.868 74.2073 716.288 72.2393 716.288ZM72.2393 710.96C73.4153 710.96 74.4113 710.528 75.2273 709.664C76.0673 708.8 76.4873 707.564 76.4873 705.956C76.4873 704.348 76.0793 703.112 75.2633 702.248C74.4713 701.384 73.4873 700.952 72.3113 700.952C71.1113 700.952 70.1153 701.384 69.3233 702.248C68.5313 703.088 68.1353 704.324 68.1353 705.956C68.1353 707.564 68.5193 708.8 69.2873 709.664C70.0793 710.528 71.0633 710.96 72.2393 710.96ZM96.0972 701.024H92.7852V716H86.6292V701.024H84.3972V695.912H86.6292V695.336C86.6292 692.864 87.3372 690.992 88.7532 689.72C90.1692 688.424 92.2452 687.776 94.9812 687.776C95.4372 687.776 95.7732 687.788 95.9892 687.812V693.032C94.8132 692.96 93.9852 693.128 93.5052 693.536C93.0252 693.944 92.7852 694.676 92.7852 695.732V695.912H96.0972V701.024ZM102.086 693.824C101.006 693.824 100.118 693.512 99.4218 692.888C98.7498 692.24 98.4138 691.448 98.4138 690.512C98.4138 689.552 98.7498 688.76 99.4218 688.136C100.118 687.488 101.006 687.164 102.086 687.164C103.142 687.164 104.006 687.488 104.678 688.136C105.374 688.76 105.722 689.552 105.722 690.512C105.722 691.448 105.374 692.24 104.678 692.888C104.006 693.512 103.142 693.824 102.086 693.824ZM105.146 695.912V716H98.9898V695.912H105.146ZM115.763 689.36V716H109.607V689.36H115.763ZM139.16 705.632C139.16 706.208 139.124 706.808 139.052 707.432H125.12C125.216 708.68 125.612 709.64 126.308 710.312C127.028 710.96 127.904 711.284 128.936 711.284C130.472 711.284 131.54 710.636 132.14 709.34H138.692C138.356 710.66 137.744 711.848 136.856 712.904C135.992 713.96 134.9 714.788 133.58 715.388C132.26 715.988 130.784 716.288 129.152 716.288C127.184 716.288 125.432 715.868 123.896 715.028C122.36 714.188 121.16 712.988 120.296 711.428C119.432 709.868 119 708.044 119 705.956C119 703.868 119.42 702.044 120.26 700.484C121.124 698.924 122.324 697.724 123.86 696.884C125.396 696.044 127.16 695.624 129.152 695.624C131.096 695.624 132.824 696.032 134.336 696.848C135.848 697.664 137.024 698.828 137.864 700.34C138.728 701.852 139.16 703.616 139.16 705.632ZM132.86 704.012C132.86 702.956 132.5 702.116 131.78 701.492C131.06 700.868 130.16 700.556 129.08 700.556C128.048 700.556 127.172 700.856 126.452 701.456C125.756 702.056 125.324 702.908 125.156 704.012H132.86Z" fill="#EE702A"/>
<path d="M53.852 340.728V366H47.696V350.844L42.044 366H37.076L31.388 350.808V366H25.232V340.728H32.504L39.596 358.224L46.616 340.728H53.852ZM77.2149 355.632C77.2149 356.208 77.1789 356.808 77.1069 357.432H63.1749C63.2709 358.68 63.6669 359.64 64.3629 360.312C65.0829 360.96 65.9589 361.284 66.9909 361.284C68.5269 361.284 69.5949 360.636 70.1949 359.34H76.7469C76.4109 360.66 75.7989 361.848 74.9109 362.904C74.0469 363.96 72.9549 364.788 71.6349 365.388C70.3149 365.988 68.8389 366.288 67.2069 366.288C65.2389 366.288 63.4869 365.868 61.9509 365.028C60.4149 364.188 59.2149 362.988 58.3509 361.428C57.4869 359.868 57.0549 358.044 57.0549 355.956C57.0549 353.868 57.4749 352.044 58.3149 350.484C59.1789 348.924 60.3789 347.724 61.9149 346.884C63.4509 346.044 65.2149 345.624 67.2069 345.624C69.1509 345.624 70.8789 346.032 72.3909 346.848C73.9029 347.664 75.0789 348.828 75.9189 350.34C76.7829 351.852 77.2149 353.616 77.2149 355.632ZM70.9149 354.012C70.9149 352.956 70.5549 352.116 69.8349 351.492C69.1149 350.868 68.2149 350.556 67.1349 350.556C66.1029 350.556 65.2269 350.856 64.5069 351.456C63.8109 352.056 63.3789 352.908 63.2109 354.012H70.9149ZM92.7025 345.696C95.0545 345.696 96.9265 346.464 98.3185 348C99.7345 349.512 100.442 351.6 100.442 354.264V366H94.3225V355.092C94.3225 353.748 93.9745 352.704 93.2785 351.96C92.5825 351.216 91.6465 350.844 90.4705 350.844C89.2945 350.844 88.3585 351.216 87.6625 351.96C86.9665 352.704 86.6185 353.748 86.6185 355.092V366H80.4625V345.912H86.6185V348.576C87.2425 347.688 88.0825 346.992 89.1385 346.488C90.1945 345.96 91.3825 345.696 92.7025 345.696ZM124.556 345.912V366H118.4V363.264C117.776 364.152 116.924 364.872 115.844 365.424C114.788 365.952 113.612 366.216 112.316 366.216C110.78 366.216 109.424 365.88 108.248 365.208C107.072 364.512 106.16 363.516 105.512 362.22C104.864 360.924 104.54 359.4 104.54 357.648V345.912H110.66V356.82C110.66 358.164 111.008 359.208 111.704 359.952C112.4 360.696 113.336 361.068 114.512 361.068C115.712 361.068 116.66 360.696 117.356 359.952C118.052 359.208 118.4 358.164 118.4 356.82V345.912H124.556Z" fill="#EE702A"/>
<path d="M47.12 270.728V296H40.964V285.596H31.388V296H25.232V270.728H31.388V280.628H40.964V270.728H47.12ZM60.708 296.288C58.74 296.288 56.964 295.868 55.38 295.028C53.82 294.188 52.584 292.988 51.672 291.428C50.784 289.868 50.34 288.044 50.34 285.956C50.34 283.892 50.796 282.08 51.708 280.52C52.62 278.936 53.868 277.724 55.452 276.884C57.036 276.044 58.812 275.624 60.78 275.624C62.748 275.624 64.524 276.044 66.108 276.884C67.692 277.724 68.94 278.936 69.852 280.52C70.764 282.08 71.22 283.892 71.22 285.956C71.22 288.02 70.752 289.844 69.816 291.428C68.904 292.988 67.644 294.188 66.036 295.028C64.452 295.868 62.676 296.288 60.708 296.288ZM60.708 290.96C61.884 290.96 62.88 290.528 63.696 289.664C64.536 288.8 64.956 287.564 64.956 285.956C64.956 284.348 64.548 283.112 63.732 282.248C62.94 281.384 61.956 280.952 60.78 280.952C59.58 280.952 58.584 281.384 57.792 282.248C57 283.088 56.604 284.324 56.604 285.956C56.604 287.564 56.988 288.8 57.756 289.664C58.548 290.528 59.532 290.96 60.708 290.96ZM100.118 275.696C102.614 275.696 104.594 276.452 106.058 277.964C107.546 279.476 108.29 281.576 108.29 284.264V296H102.17V285.092C102.17 283.796 101.822 282.8 101.126 282.104C100.454 281.384 99.5179 281.024 98.3179 281.024C97.1179 281.024 96.1699 281.384 95.4739 282.104C94.8019 282.8 94.4659 283.796 94.4659 285.092V296H88.3459V285.092C88.3459 283.796 87.9979 282.8 87.3019 282.104C86.6299 281.384 85.6939 281.024 84.4939 281.024C83.2939 281.024 82.3459 281.384 81.6499 282.104C80.9779 282.8 80.6419 283.796 80.6419 285.092V296H74.4859V275.912H80.6419V278.432C81.2659 277.592 82.0819 276.932 83.0899 276.452C84.0979 275.948 85.2379 275.696 86.5099 275.696C88.0219 275.696 89.3659 276.02 90.5419 276.668C91.7419 277.316 92.6779 278.24 93.3499 279.44C94.0459 278.336 94.9939 277.436 96.1939 276.74C97.3939 276.044 98.7019 275.696 100.118 275.696ZM131.531 285.632C131.531 286.208 131.495 286.808 131.423 287.432H117.491C117.587 288.68 117.983 289.64 118.679 290.312C119.399 290.96 120.275 291.284 121.307 291.284C122.843 291.284 123.911 290.636 124.511 289.34H131.063C130.727 290.66 130.115 291.848 129.227 292.904C128.363 293.96 127.271 294.788 125.951 295.388C124.631 295.988 123.155 296.288 121.523 296.288C119.555 296.288 117.803 295.868 116.267 295.028C114.731 294.188 113.531 292.988 112.667 291.428C111.803 289.868 111.371 288.044 111.371 285.956C111.371 283.868 111.791 282.044 112.631 280.484C113.495 278.924 114.695 277.724 116.231 276.884C117.767 276.044 119.531 275.624 121.523 275.624C123.467 275.624 125.195 276.032 126.707 276.848C128.219 277.664 129.395 278.828 130.235 280.34C131.099 281.852 131.531 283.616 131.531 285.632ZM125.231 284.012C125.231 282.956 124.871 282.116 124.151 281.492C123.431 280.868 122.531 280.556 121.451 280.556C120.419 280.556 119.543 280.856 118.823 281.456C118.127 282.056 117.695 282.908 117.527 284.012H125.231Z" fill="#EE702A"/>
<path d="M41.684 410.728V415.66H31.388V420.988H39.092V425.776H31.388V436H25.232V410.728H41.684ZM43.6955 425.92C43.6955 423.856 44.0795 422.044 44.8475 420.484C45.6395 418.924 46.7075 417.724 48.0515 416.884C49.3955 416.044 50.8955 415.624 52.5515 415.624C53.9675 415.624 55.2035 415.912 56.2595 416.488C57.3395 417.064 58.1675 417.82 58.7435 418.756V415.912H64.8995V436H58.7435V433.156C58.1435 434.092 57.3035 434.848 56.2235 435.424C55.1675 436 53.9315 436.288 52.5155 436.288C50.8835 436.288 49.3955 435.868 48.0515 435.028C46.7075 434.164 45.6395 432.952 44.8475 431.392C44.0795 429.808 43.6955 427.984 43.6955 425.92ZM58.7435 425.956C58.7435 424.42 58.3115 423.208 57.4475 422.32C56.6075 421.432 55.5755 420.988 54.3515 420.988C53.1275 420.988 52.0835 421.432 51.2195 422.32C50.3795 423.184 49.9595 424.384 49.9595 425.92C49.9595 427.456 50.3795 428.68 51.2195 429.592C52.0835 430.48 53.1275 430.924 54.3515 430.924C55.5755 430.924 56.6075 430.48 57.4475 429.592C58.3115 428.704 58.7435 427.492 58.7435 425.956ZM78.3891 430.24L82.7451 415.912H89.2971L82.1691 436H74.5731L67.4451 415.912H74.0331L78.3891 430.24ZM101.032 436.288C99.0643 436.288 97.2883 435.868 95.7043 435.028C94.1443 434.188 92.9083 432.988 91.9963 431.428C91.1083 429.868 90.6643 428.044 90.6643 425.956C90.6643 423.892 91.1203 422.08 92.0322 420.52C92.9443 418.936 94.1923 417.724 95.7763 416.884C97.3603 416.044 99.1363 415.624 101.104 415.624C103.072 415.624 104.848 416.044 106.432 416.884C108.016 417.724 109.264 418.936 110.176 420.52C111.088 422.08 111.544 423.892 111.544 425.956C111.544 428.02 111.076 429.844 110.14 431.428C109.228 432.988 107.968 434.188 106.36 435.028C104.776 435.868 103 436.288 101.032 436.288ZM101.032 430.96C102.208 430.96 103.204 430.528 104.02 429.664C104.86 428.8 105.28 427.564 105.28 425.956C105.28 424.348 104.872 423.112 104.056 422.248C103.264 421.384 102.28 420.952 101.104 420.952C99.9043 420.952 98.9083 421.384 98.1163 422.248C97.3243 423.088 96.9283 424.324 96.9283 425.956C96.9283 427.564 97.3123 428.8 98.0803 429.664C98.8723 430.528 99.8563 430.96 101.032 430.96ZM120.966 419.26C121.686 418.156 122.586 417.292 123.666 416.668C124.746 416.02 125.946 415.696 127.266 415.696V422.212H125.574C124.038 422.212 122.886 422.548 122.118 423.22C121.35 423.868 120.966 425.02 120.966 426.676V436H114.81V415.912H120.966V419.26ZM133.305 413.824C132.225 413.824 131.337 413.512 130.641 412.888C129.969 412.24 129.633 411.448 129.633 410.512C129.633 409.552 129.969 408.76 130.641 408.136C131.337 407.488 132.225 407.164 133.305 407.164C134.361 407.164 135.225 407.488 135.897 408.136C136.593 408.76 136.941 409.552 136.941 410.512C136.941 411.448 136.593 412.24 135.897 412.888C135.225 413.512 134.361 413.824 133.305 413.824ZM136.365 415.912V436H130.209V415.912H136.365ZM152.022 430.78V436H148.89C146.658 436 144.918 435.46 143.67 434.38C142.422 433.276 141.798 431.488 141.798 429.016V421.024H139.35V415.912H141.798V411.016H147.954V415.912H151.986V421.024H147.954V429.088C147.954 429.688 148.098 430.12 148.386 430.384C148.674 430.648 149.154 430.78 149.826 430.78H152.022ZM174.387 425.632C174.387 426.208 174.351 426.808 174.279 427.432H160.347C160.443 428.68 160.839 429.64 161.535 430.312C162.255 430.96 163.131 431.284 164.163 431.284C165.699 431.284 166.767 430.636 167.367 429.34H173.919C173.583 430.66 172.971 431.848 172.083 432.904C171.219 433.96 170.127 434.788 168.807 435.388C167.487 435.988 166.011 436.288 164.379 436.288C162.411 436.288 160.659 435.868 159.123 435.028C157.587 434.188 156.387 432.988 155.523 431.428C154.659 429.868 154.227 428.044 154.227 425.956C154.227 423.868 154.647 422.044 155.487 420.484C156.351 418.924 157.551 417.724 159.087 416.884C160.623 416.044 162.387 415.624 164.379 415.624C166.323 415.624 168.051 416.032 169.563 416.848C171.075 417.664 172.251 418.828 173.091 420.34C173.955 421.852 174.387 423.616 174.387 425.632ZM168.087 424.012C168.087 422.956 167.727 422.116 167.007 421.492C166.287 420.868 165.387 420.556 164.307 420.556C163.275 420.556 162.399 420.856 161.679 421.456C160.983 422.056 160.551 422.908 160.383 424.012H168.087ZM185.806 436.288C184.054 436.288 182.494 435.988 181.126 435.388C179.758 434.788 178.678 433.972 177.886 432.94C177.094 431.884 176.65 430.708 176.554 429.412H182.638C182.71 430.108 183.034 430.672 183.61 431.104C184.186 431.536 184.894 431.752 185.734 431.752C186.502 431.752 187.09 431.608 187.498 431.32C187.93 431.008 188.146 430.612 188.146 430.132C188.146 429.556 187.846 429.136 187.246 428.872C186.646 428.584 185.674 428.272 184.33 427.936C182.89 427.6 181.69 427.252 180.73 426.892C179.77 426.508 178.942 425.92 178.246 425.128C177.55 424.312 177.202 423.22 177.202 421.852C177.202 420.7 177.514 419.656 178.138 418.72C178.786 417.76 179.722 417.004 180.946 416.452C182.194 415.9 183.67 415.624 185.374 415.624C187.894 415.624 189.874 416.248 191.314 417.496C192.778 418.744 193.618 420.4 193.834 422.464H188.146C188.05 421.768 187.738 421.216 187.21 420.808C186.706 420.4 186.034 420.196 185.194 420.196C184.474 420.196 183.922 420.34 183.538 420.628C183.154 420.892 182.962 421.264 182.962 421.744C182.962 422.32 183.262 422.752 183.862 423.04C184.486 423.328 185.446 423.616 186.742 423.904C188.23 424.288 189.442 424.672 190.378 425.056C191.314 425.416 192.13 426.016 192.826 426.856C193.546 427.672 193.918 428.776 193.942 430.168C193.942 431.344 193.606 432.4 192.934 433.336C192.286 434.248 191.338 434.968 190.09 435.496C188.866 436.024 187.438 436.288 185.806 436.288Z" fill="#EE702A"/>
<path d="M40.964 571.536H31.532L30.02 576H23.576L32.72 550.728H39.848L48.992 576H42.476L40.964 571.536ZM39.38 566.784L36.248 557.532L33.152 566.784H39.38ZM57.931 558.756C58.507 557.82 59.335 557.064 60.415 556.488C61.495 555.912 62.731 555.624 64.123 555.624C65.779 555.624 67.279 556.044 68.623 556.884C69.967 557.724 71.023 558.924 71.791 560.484C72.583 562.044 72.979 563.856 72.979 565.92C72.979 567.984 72.583 569.808 71.791 571.392C71.023 572.952 69.967 574.164 68.623 575.028C67.279 575.868 65.779 576.288 64.123 576.288C62.707 576.288 61.471 576.012 60.415 575.46C59.359 574.884 58.531 574.128 57.931 573.192V576H51.775V549.36H57.931V558.756ZM66.715 565.92C66.715 564.384 66.283 563.184 65.419 562.32C64.579 561.432 63.535 560.988 62.287 560.988C61.063 560.988 60.019 561.432 59.155 562.32C58.315 563.208 57.895 564.42 57.895 565.956C57.895 567.492 58.315 568.704 59.155 569.592C60.019 570.48 61.063 570.924 62.287 570.924C63.511 570.924 64.555 570.48 65.419 569.592C66.283 568.68 66.715 567.456 66.715 565.92ZM85.3526 576.288C83.3846 576.288 81.6086 575.868 80.0246 575.028C78.4646 574.188 77.2286 572.988 76.3166 571.428C75.4286 569.868 74.9846 568.044 74.9846 565.956C74.9846 563.892 75.4406 562.08 76.3526 560.52C77.2646 558.936 78.5126 557.724 80.0966 556.884C81.6806 556.044 83.4566 555.624 85.4246 555.624C87.3926 555.624 89.1686 556.044 90.7526 556.884C92.3366 557.724 93.5846 558.936 94.4966 560.52C95.4086 562.08 95.8646 563.892 95.8646 565.956C95.8646 568.02 95.3966 569.844 94.4606 571.428C93.5486 572.988 92.2886 574.188 90.6806 575.028C89.0966 575.868 87.3206 576.288 85.3526 576.288ZM85.3526 570.96C86.5286 570.96 87.5246 570.528 88.3406 569.664C89.1806 568.8 89.6006 567.564 89.6006 565.956C89.6006 564.348 89.1926 563.112 88.3766 562.248C87.5846 561.384 86.6006 560.952 85.4246 560.952C84.2246 560.952 83.2286 561.384 82.4366 562.248C81.6446 563.088 81.2486 564.324 81.2486 565.956C81.2486 567.564 81.6326 568.8 82.4006 569.664C83.1926 570.528 84.1766 570.96 85.3526 570.96ZM118.966 555.912V576H112.81V573.264C112.186 574.152 111.334 574.872 110.254 575.424C109.198 575.952 108.022 576.216 106.726 576.216C105.19 576.216 103.834 575.88 102.658 575.208C101.482 574.512 100.57 573.516 99.9224 572.22C99.2744 570.924 98.9504 569.4 98.9504 567.648V555.912H105.07V566.82C105.07 568.164 105.418 569.208 106.114 569.952C106.81 570.696 107.746 571.068 108.922 571.068C110.122 571.068 111.07 570.696 111.766 569.952C112.462 569.208 112.81 568.164 112.81 566.82V555.912H118.966ZM134.584 570.78V576H131.452C129.22 576 127.48 575.46 126.232 574.38C124.984 573.276 124.36 571.488 124.36 569.016V561.024H121.912V555.912H124.36V551.016H130.516V555.912H134.548V561.024H130.516V569.088C130.516 569.688 130.66 570.12 130.948 570.384C131.236 570.648 131.716 570.78 132.388 570.78H134.584Z" fill="#EE702A"/>
<path d="M38.12 506L32.864 496.46H31.388V506H25.232V480.728H35.564C37.556 480.728 39.248 481.076 40.64 481.772C42.056 482.468 43.112 483.428 43.808 484.652C44.504 485.852 44.852 487.196 44.852 488.684C44.852 490.364 44.372 491.864 43.412 493.184C42.476 494.504 41.084 495.44 39.236 495.992L45.068 506H38.12ZM31.388 492.104H35.204C36.332 492.104 37.172 491.828 37.724 491.276C38.3 490.724 38.588 489.944 38.588 488.936C38.588 487.976 38.3 487.22 37.724 486.668C37.172 486.116 36.332 485.84 35.204 485.84H31.388V492.104ZM67.6524 495.632C67.6524 496.208 67.6164 496.808 67.5444 497.432H53.6124C53.7084 498.68 54.1044 499.64 54.8004 500.312C55.5204 500.96 56.3964 501.284 57.4284 501.284C58.9644 501.284 60.0324 500.636 60.6324 499.34H67.1844C66.8484 500.66 66.2364 501.848 65.3484 502.904C64.4844 503.96 63.3924 504.788 62.0724 505.388C60.7524 505.988 59.2764 506.288 57.6444 506.288C55.6764 506.288 53.9244 505.868 52.3884 505.028C50.8524 504.188 49.6524 502.988 48.7884 501.428C47.9244 499.868 47.4924 498.044 47.4924 495.956C47.4924 493.868 47.9124 492.044 48.7524 490.484C49.6164 488.924 50.8164 487.724 52.3524 486.884C53.8884 486.044 55.6524 485.624 57.6444 485.624C59.5884 485.624 61.3164 486.032 62.8284 486.848C64.3404 487.664 65.5164 488.828 66.3564 490.34C67.2204 491.852 67.6524 493.616 67.6524 495.632ZM61.3524 494.012C61.3524 492.956 60.9924 492.116 60.2724 491.492C59.5524 490.868 58.6524 490.556 57.5724 490.556C56.5404 490.556 55.6644 490.856 54.9444 491.456C54.2484 492.056 53.8164 492.908 53.6484 494.012H61.3524ZM69.676 495.956C69.676 493.868 70.096 492.044 70.936 490.484C71.8 488.924 72.988 487.724 74.5 486.884C76.036 486.044 77.788 485.624 79.756 485.624C82.276 485.624 84.376 486.284 86.056 487.604C87.76 488.924 88.876 490.784 89.404 493.184H82.852C82.3 491.648 81.232 490.88 79.648 490.88C78.52 490.88 77.62 491.324 76.948 492.212C76.276 493.076 75.94 494.324 75.94 495.956C75.94 497.588 76.276 498.848 76.948 499.736C77.62 500.6 78.52 501.032 79.648 501.032C81.232 501.032 82.3 500.264 82.852 498.728H89.404C88.876 501.08 87.76 502.928 86.056 504.272C84.352 505.616 82.252 506.288 79.756 506.288C77.788 506.288 76.036 505.868 74.5 505.028C72.988 504.188 71.8 502.988 70.936 501.428C70.096 499.868 69.676 498.044 69.676 495.956ZM111.633 495.632C111.633 496.208 111.597 496.808 111.525 497.432H97.5928C97.6888 498.68 98.0848 499.64 98.7808 500.312C99.5008 500.96 100.377 501.284 101.409 501.284C102.945 501.284 104.013 500.636 104.613 499.34H111.165C110.829 500.66 110.217 501.848 109.329 502.904C108.465 503.96 107.373 504.788 106.053 505.388C104.733 505.988 103.257 506.288 101.625 506.288C99.6568 506.288 97.9048 505.868 96.3688 505.028C94.8328 504.188 93.6328 502.988 92.7688 501.428C91.9048 499.868 91.4728 498.044 91.4728 495.956C91.4728 493.868 91.8928 492.044 92.7328 490.484C93.5968 488.924 94.7968 487.724 96.3328 486.884C97.8688 486.044 99.6328 485.624 101.625 485.624C103.569 485.624 105.297 486.032 106.809 486.848C108.321 487.664 109.497 488.828 110.337 490.34C111.201 491.852 111.633 493.616 111.633 495.632ZM105.333 494.012C105.333 492.956 104.973 492.116 104.253 491.492C103.533 490.868 102.633 490.556 101.553 490.556C100.521 490.556 99.6448 490.856 98.9248 491.456C98.2288 492.056 97.7968 492.908 97.6288 494.012H105.333ZM127.12 485.696C129.472 485.696 131.344 486.464 132.736 488C134.152 489.512 134.86 491.6 134.86 494.264V506H128.74V495.092C128.74 493.748 128.392 492.704 127.696 491.96C127 491.216 126.064 490.844 124.888 490.844C123.712 490.844 122.776 491.216 122.08 491.96C121.384 492.704 121.036 493.748 121.036 495.092V506H114.88V485.912H121.036V488.576C121.66 487.688 122.5 486.992 123.556 486.488C124.612 485.96 125.8 485.696 127.12 485.696ZM150.334 500.78V506H147.202C144.97 506 143.23 505.46 141.982 504.38C140.734 503.276 140.11 501.488 140.11 499.016V491.024H137.662V485.912H140.11V481.016H146.266V485.912H150.298V491.024H146.266V499.088C146.266 499.688 146.41 500.12 146.698 500.384C146.986 500.648 147.466 500.78 148.138 500.78H150.334ZM161.935 506.288C160.183 506.288 158.623 505.988 157.255 505.388C155.887 504.788 154.807 503.972 154.015 502.94C153.223 501.884 152.779 500.708 152.683 499.412H158.767C158.839 500.108 159.163 500.672 159.739 501.104C160.315 501.536 161.023 501.752 161.863 501.752C162.631 501.752 163.219 501.608 163.627 501.32C164.059 501.008 164.275 500.612 164.275 500.132C164.275 499.556 163.975 499.136 163.375 498.872C162.775 498.584 161.803 498.272 160.459 497.936C159.019 497.6 157.819 497.252 156.859 496.892C155.899 496.508 155.071 495.92 154.375 495.128C153.679 494.312 153.331 493.22 153.331 491.852C153.331 490.7 153.643 489.656 154.267 488.72C154.915 487.76 155.851 487.004 157.075 486.452C158.323 485.9 159.799 485.624 161.503 485.624C164.023 485.624 166.003 486.248 167.443 487.496C168.907 488.744 169.747 490.4 169.963 492.464H164.275C164.179 491.768 163.867 491.216 163.339 490.808C162.835 490.4 162.163 490.196 161.323 490.196C160.603 490.196 160.051 490.34 159.667 490.628C159.283 490.892 159.091 491.264 159.091 491.744C159.091 492.32 159.391 492.752 159.991 493.04C160.615 493.328 161.575 493.616 162.871 493.904C164.359 494.288 165.571 494.672 166.507 495.056C167.443 495.416 168.259 496.016 168.955 496.856C169.675 497.672 170.047 498.776 170.071 500.168C170.071 501.344 169.735 502.4 169.063 503.336C168.415 504.248 167.467 504.968 166.219 505.496C164.995 506.024 163.567 506.288 161.935 506.288Z" fill="#EE702A"/>
<path d="M34.376 646.252C32.528 646.252 30.872 645.952 29.408 645.352C27.944 644.752 26.768 643.864 25.88 642.688C25.016 641.512 24.56 640.096 24.512 638.44H31.064C31.16 639.376 31.484 640.096 32.036 640.6C32.588 641.08 33.308 641.32 34.196 641.32C35.108 641.32 35.828 641.116 36.356 640.708C36.884 640.276 37.148 639.688 37.148 638.944C37.148 638.32 36.932 637.804 36.5 637.396C36.092 636.988 35.576 636.652 34.952 636.388C34.352 636.124 33.488 635.824 32.36 635.488C30.728 634.984 29.396 634.48 28.364 633.976C27.332 633.472 26.444 632.728 25.7 631.744C24.956 630.76 24.584 629.476 24.584 627.892C24.584 625.54 25.436 623.704 27.14 622.384C28.844 621.04 31.064 620.368 33.8 620.368C36.584 620.368 38.828 621.04 40.532 622.384C42.236 623.704 43.148 625.552 43.268 627.928H36.608C36.56 627.112 36.26 626.476 35.708 626.02C35.156 625.54 34.448 625.3 33.584 625.3C32.84 625.3 32.24 625.504 31.784 625.912C31.328 626.296 31.1 626.86 31.1 627.604C31.1 628.42 31.484 629.056 32.252 629.512C33.02 629.968 34.22 630.46 35.852 630.988C37.484 631.54 38.804 632.068 39.812 632.572C40.844 633.076 41.732 633.808 42.476 634.768C43.22 635.728 43.592 636.964 43.592 638.476C43.592 639.916 43.22 641.224 42.476 642.4C41.756 643.576 40.7 644.512 39.308 645.208C37.916 645.904 36.272 646.252 34.376 646.252ZM66.3164 635.632C66.3164 636.208 66.2804 636.808 66.2084 637.432H52.2764C52.3724 638.68 52.7684 639.64 53.4644 640.312C54.1844 640.96 55.0604 641.284 56.0924 641.284C57.6284 641.284 58.6964 640.636 59.2964 639.34H65.8484C65.5124 640.66 64.9004 641.848 64.0124 642.904C63.1484 643.96 62.0564 644.788 60.7364 645.388C59.4164 645.988 57.9404 646.288 56.3084 646.288C54.3404 646.288 52.5884 645.868 51.0524 645.028C49.5164 644.188 48.3164 642.988 47.4524 641.428C46.5884 639.868 46.1564 638.044 46.1564 635.956C46.1564 633.868 46.5764 632.044 47.4164 630.484C48.2804 628.924 49.4804 627.724 51.0164 626.884C52.5524 626.044 54.3164 625.624 56.3084 625.624C58.2524 625.624 59.9804 626.032 61.4924 626.848C63.0044 627.664 64.1804 628.828 65.0204 630.34C65.8844 631.852 66.3164 633.616 66.3164 635.632ZM60.0164 634.012C60.0164 632.956 59.6564 632.116 58.9364 631.492C58.2164 630.868 57.3164 630.556 56.2364 630.556C55.2044 630.556 54.3284 630.856 53.6084 631.456C52.9124 632.056 52.4804 632.908 52.3124 634.012H60.0164ZM80.76 640.78V646H77.628C75.396 646 73.656 645.46 72.408 644.38C71.16 643.276 70.536 641.488 70.536 639.016V631.024H68.088V625.912H70.536V621.016H76.692V625.912H80.724V631.024H76.692V639.088C76.692 639.688 76.836 640.12 77.124 640.384C77.412 640.648 77.892 640.78 78.564 640.78H80.76ZM95.385 640.78V646H92.253C90.021 646 88.281 645.46 87.033 644.38C85.785 643.276 85.161 641.488 85.161 639.016V631.024H82.713V625.912H85.161V621.016H91.317V625.912H95.349V631.024H91.317V639.088C91.317 639.688 91.461 640.12 91.749 640.384C92.037 640.648 92.517 640.78 93.189 640.78H95.385ZM101.91 623.824C100.83 623.824 99.942 623.512 99.246 622.888C98.574 622.24 98.238 621.448 98.238 620.512C98.238 619.552 98.574 618.76 99.246 618.136C99.942 617.488 100.83 617.164 101.91 617.164C102.966 617.164 103.83 617.488 104.502 618.136C105.198 618.76 105.546 619.552 105.546 620.512C105.546 621.448 105.198 622.24 104.502 622.888C103.83 623.512 102.966 623.824 101.91 623.824ZM104.97 625.912V646H98.814V625.912H104.97ZM121.671 625.696C124.023 625.696 125.895 626.464 127.287 628C128.703 629.512 129.411 631.6 129.411 634.264V646H123.291V635.092C123.291 633.748 122.943 632.704 122.247 631.96C121.551 631.216 120.615 630.844 119.439 630.844C118.263 630.844 117.327 631.216 116.631 631.96C115.935 632.704 115.587 633.748 115.587 635.092V646H109.431V625.912H115.587V628.576C116.211 627.688 117.051 626.992 118.107 626.488C119.163 625.96 120.351 625.696 121.671 625.696ZM141.321 625.624C142.737 625.624 143.973 625.912 145.029 626.488C146.109 627.064 146.937 627.82 147.513 628.756V625.912H153.669V645.964C153.669 647.812 153.297 649.48 152.553 650.968C151.833 652.48 150.717 653.68 149.205 654.568C147.717 655.456 145.857 655.9 143.625 655.9C140.649 655.9 138.237 655.192 136.389 653.776C134.541 652.384 133.485 650.488 133.221 648.088H139.305C139.497 648.856 139.953 649.456 140.673 649.888C141.393 650.344 142.281 650.572 143.337 650.572C144.609 650.572 145.617 650.2 146.361 649.456C147.129 648.736 147.513 647.572 147.513 645.964V643.12C146.913 644.056 146.085 644.824 145.029 645.424C143.973 646 142.737 646.288 141.321 646.288C139.665 646.288 138.165 645.868 136.821 645.028C135.477 644.164 134.409 642.952 133.617 641.392C132.849 639.808 132.465 637.984 132.465 635.92C132.465 633.856 132.849 632.044 133.617 630.484C134.409 628.924 135.477 627.724 136.821 626.884C138.165 626.044 139.665 625.624 141.321 625.624ZM147.513 635.956C147.513 634.42 147.081 633.208 146.217 632.32C145.377 631.432 144.345 630.988 143.121 630.988C141.897 630.988 140.853 631.432 139.989 632.32C139.149 633.184 138.729 634.384 138.729 635.92C138.729 637.456 139.149 638.68 139.989 639.592C140.853 640.48 141.897 640.924 143.121 640.924C144.345 640.924 145.377 640.48 146.217 639.592C147.081 638.704 147.513 637.492 147.513 635.956ZM166.295 646.288C164.543 646.288 162.983 645.988 161.615 645.388C160.247 644.788 159.167 643.972 158.375 642.94C157.583 641.884 157.139 640.708 157.043 639.412H163.127C163.199 640.108 163.523 640.672 164.099 641.104C164.675 641.536 165.383 641.752 166.223 641.752C166.991 641.752 167.579 641.608 167.987 641.32C168.419 641.008 168.635 640.612 168.635 640.132C168.635 639.556 168.335 639.136 167.735 638.872C167.135 638.584 166.163 638.272 164.819 637.936C163.379 637.6 162.179 637.252 161.219 636.892C160.259 636.508 159.431 635.92 158.735 635.128C158.039 634.312 157.691 633.22 157.691 631.852C157.691 630.7 158.003 629.656 158.627 628.72C159.275 627.76 160.211 627.004 161.435 626.452C162.683 625.9 164.159 625.624 165.863 625.624C168.383 625.624 170.363 626.248 171.803 627.496C173.267 628.744 174.107 630.4 174.323 632.464H168.635C168.539 631.768 168.227 631.216 167.699 630.808C167.195 630.4 166.523 630.196 165.683 630.196C164.963 630.196 164.411 630.34 164.027 630.628C163.643 630.892 163.451 631.264 163.451 631.744C163.451 632.32 163.751 632.752 164.351 633.04C164.975 633.328 165.935 633.616 167.231 633.904C168.719 634.288 169.931 634.672 170.867 635.056C171.803 635.416 172.619 636.016 173.315 636.856C174.035 637.672 174.407 638.776 174.431 640.168C174.431 641.344 174.095 642.4 173.423 643.336C172.775 644.248 171.827 644.968 170.579 645.496C169.355 646.024 167.927 646.288 166.295 646.288Z" fill="#EE702A"/>
<path d="M32.388 904.248H40.452V909H26.232V883.728H32.388V904.248ZM52.5323 909.288C50.5643 909.288 48.7883 908.868 47.2043 908.028C45.6443 907.188 44.4083 905.988 43.4963 904.428C42.6083 902.868 42.1643 901.044 42.1643 898.956C42.1643 896.892 42.6203 895.08 43.5322 893.52C44.4443 891.936 45.6923 890.724 47.2763 889.884C48.8603 889.044 50.6363 888.624 52.6043 888.624C54.5723 888.624 56.3483 889.044 57.9323 889.884C59.5163 890.724 60.7643 891.936 61.6763 893.52C62.5883 895.08 63.0443 896.892 63.0443 898.956C63.0443 901.02 62.5763 902.844 61.6403 904.428C60.7283 905.988 59.4683 907.188 57.8603 908.028C56.2763 908.868 54.5003 909.288 52.5323 909.288ZM52.5323 903.96C53.7083 903.96 54.7043 903.528 55.5203 902.664C56.3603 901.8 56.7803 900.564 56.7803 898.956C56.7803 897.348 56.3723 896.112 55.5563 895.248C54.7643 894.384 53.7803 893.952 52.6043 893.952C51.4043 893.952 50.4083 894.384 49.6163 895.248C48.8243 896.088 48.4283 897.324 48.4283 898.956C48.4283 900.564 48.8123 901.8 49.5803 902.664C50.3723 903.528 51.3563 903.96 52.5323 903.96ZM73.9421 888.624C75.3581 888.624 76.5941 888.912 77.6501 889.488C78.7301 890.064 79.5581 890.82 80.1341 891.756V888.912H86.2901V908.964C86.2901 910.812 85.9181 912.48 85.1741 913.968C84.4541 915.48 83.3381 916.68 81.8261 917.568C80.3381 918.456 78.4781 918.9 76.2461 918.9C73.2701 918.9 70.8581 918.192 69.0101 916.776C67.1621 915.384 66.1061 913.488 65.8421 911.088H71.9261C72.1181 911.856 72.5741 912.456 73.2941 912.888C74.0141 913.344 74.9021 913.572 75.9581 913.572C77.2301 913.572 78.2381 913.2 78.9821 912.456C79.7501 911.736 80.1341 910.572 80.1341 908.964V906.12C79.5341 907.056 78.7061 907.824 77.6501 908.424C76.5941 909 75.3581 909.288 73.9421 909.288C72.2861 909.288 70.7861 908.868 69.4421 908.028C68.0981 907.164 67.0301 905.952 66.2381 904.392C65.4701 902.808 65.0861 900.984 65.0861 898.92C65.0861 896.856 65.4701 895.044 66.2381 893.484C67.0301 891.924 68.0981 890.724 69.4421 889.884C70.7861 889.044 72.2861 888.624 73.9421 888.624ZM80.1341 898.956C80.1341 897.42 79.7021 896.208 78.8381 895.32C77.9981 894.432 76.9661 893.988 75.7421 893.988C74.5181 893.988 73.4741 894.432 72.6101 895.32C71.7701 896.184 71.3501 897.384 71.3501 898.92C71.3501 900.456 71.7701 901.68 72.6101 902.592C73.4741 903.48 74.5181 903.924 75.7421 903.924C76.9661 903.924 77.9981 903.48 78.8381 902.592C79.7021 901.704 80.1341 900.492 80.1341 898.956ZM107.517 909.288C105.549 909.288 103.773 908.868 102.189 908.028C100.629 907.188 99.3926 905.988 98.4806 904.428C97.5926 902.868 97.1486 901.044 97.1486 898.956C97.1486 896.892 97.6046 895.08 98.5166 893.52C99.4286 891.936 100.677 890.724 102.261 889.884C103.845 889.044 105.621 888.624 107.589 888.624C109.557 888.624 111.333 889.044 112.917 889.884C114.501 890.724 115.749 891.936 116.661 893.52C117.573 895.08 118.029 896.892 118.029 898.956C118.029 901.02 117.561 902.844 116.625 904.428C115.713 905.988 114.453 907.188 112.845 908.028C111.261 908.868 109.485 909.288 107.517 909.288ZM107.517 903.96C108.693 903.96 109.689 903.528 110.505 902.664C111.345 901.8 111.765 900.564 111.765 898.956C111.765 897.348 111.357 896.112 110.541 895.248C109.749 894.384 108.765 893.952 107.589 893.952C106.389 893.952 105.393 894.384 104.601 895.248C103.809 896.088 103.413 897.324 103.413 898.956C103.413 900.564 103.797 901.8 104.565 902.664C105.357 903.528 106.341 903.96 107.517 903.96ZM141.131 888.912V909H134.975V906.264C134.351 907.152 133.499 907.872 132.419 908.424C131.363 908.952 130.187 909.216 128.891 909.216C127.355 909.216 125.999 908.88 124.823 908.208C123.647 907.512 122.735 906.516 122.087 905.22C121.439 903.924 121.115 902.4 121.115 900.648V888.912H127.235V899.82C127.235 901.164 127.583 902.208 128.279 902.952C128.975 903.696 129.911 904.068 131.087 904.068C132.287 904.068 133.235 903.696 133.931 902.952C134.627 902.208 134.975 901.164 134.975 899.82V888.912H141.131ZM156.748 903.78V909H153.616C151.384 909 149.644 908.46 148.396 907.38C147.148 906.276 146.524 904.488 146.524 902.016V894.024H144.076V888.912H146.524V884.016H152.68V888.912H156.712V894.024H152.68V902.088C152.68 902.688 152.824 903.12 153.112 903.384C153.4 903.648 153.88 903.78 154.552 903.78H156.748Z" fill="#F8A700"/>
<path d="M214.409 159.644H214.264C213.746 159.602 213.266 159.348 212.927 158.938C212.589 158.528 212.42 157.996 212.459 157.457L213.393 143.895C213.412 143.627 213.481 143.366 213.597 143.126C213.713 142.887 213.873 142.673 214.068 142.498C214.263 142.322 214.489 142.188 214.734 142.104C214.979 142.019 215.237 141.986 215.495 142.005C215.752 142.025 216.003 142.097 216.233 142.217C216.464 142.337 216.669 142.504 216.838 142.707C217.007 142.91 217.135 143.145 217.217 143.4C217.298 143.654 217.33 143.923 217.311 144.191L216.368 157.748C216.331 158.263 216.109 158.744 215.746 159.096C215.383 159.447 214.905 159.643 214.409 159.644Z" fill="#EDCB20"/>
<path d="M221.527 164.911C221.125 164.912 220.733 164.785 220.403 164.546C220.073 164.307 219.821 163.969 219.682 163.577C219.543 163.185 219.523 162.758 219.624 162.354C219.726 161.949 219.944 161.587 220.25 161.316L227.977 154.462C228.172 154.273 228.401 154.127 228.651 154.033C228.901 153.939 229.167 153.898 229.433 153.914C229.698 153.93 229.958 154.001 230.196 154.124C230.435 154.247 230.646 154.419 230.819 154.63C230.991 154.84 231.121 155.085 231.2 155.349C231.279 155.614 231.306 155.892 231.279 156.167C231.252 156.442 231.171 156.709 231.042 156.951C230.913 157.192 230.738 157.405 230.528 157.574L222.8 164.409C222.447 164.729 221.996 164.908 221.527 164.911Z" fill="#EDCB20"/>
<path d="M238.106 174.215H237.962L224.971 173.234C224.714 173.215 224.463 173.143 224.233 173.023C224.002 172.902 223.797 172.736 223.628 172.533C223.459 172.33 223.33 172.095 223.249 171.84C223.168 171.585 223.136 171.317 223.155 171.049C223.173 170.782 223.242 170.52 223.358 170.281C223.474 170.041 223.634 169.827 223.829 169.652C224.024 169.476 224.25 169.343 224.495 169.258C224.74 169.174 224.998 169.14 225.256 169.16L238.246 170.141C238.755 170.177 239.23 170.417 239.572 170.811C239.913 171.205 240.094 171.721 240.076 172.251C240.058 172.781 239.842 173.283 239.474 173.65C239.107 174.018 238.616 174.222 238.106 174.22V174.215Z" fill="#EDCB20"/>
<path d="M220.48 177.9C219.988 177.898 219.514 177.703 219.152 177.356C218.791 177.008 218.567 176.533 218.526 176.023C217.623 164.911 208.731 163.62 208.356 163.573C207.859 163.485 207.414 163.203 207.112 162.784C206.809 162.365 206.673 161.841 206.731 161.32C206.789 160.8 207.036 160.322 207.423 159.986C207.809 159.65 208.305 159.48 208.807 159.513C213.104 160.029 221.482 164.071 222.434 175.675C222.477 176.217 222.311 176.755 221.972 177.17C221.633 177.584 221.15 177.842 220.629 177.886L220.48 177.9Z" fill="#EDCB20"/>
<path d="M143.981 159.747C144.76 160.636 145.15 161.858 145.15 163.414V170.263H141.715V163.897C141.756 163.23 141.548 162.572 141.133 162.062C140.706 161.641 140.141 161.407 139.553 161.407C138.965 161.407 138.4 161.641 137.973 162.062C137.559 162.571 137.351 163.227 137.391 163.893V170.258H133.938V154.71H137.395V160.114C137.76 159.578 138.253 159.15 138.826 158.874C139.462 158.556 140.161 158.395 140.866 158.405C141.448 158.38 142.028 158.487 142.566 158.719C143.104 158.951 143.587 159.302 143.981 159.747Z" fill="#F8A700"/>
<path d="M147.524 161.207C147.922 160.343 148.548 159.614 149.33 159.104C150.085 158.611 150.961 158.356 151.853 158.367C152.579 158.35 153.298 158.525 153.943 158.874C154.504 159.176 154.978 159.628 155.315 160.184V158.536H158.768V170.272H155.315V168.61C154.966 169.171 154.482 169.627 153.911 169.934C153.266 170.283 152.548 170.458 151.821 170.441C150.934 170.45 150.064 170.191 149.316 169.695C148.536 169.176 147.91 168.441 147.51 167.573C147.058 166.579 146.834 165.49 146.856 164.39C146.835 163.289 147.064 162.199 147.524 161.207ZM154.597 162.278C154.371 162.033 154.1 161.838 153.8 161.704C153.5 161.571 153.177 161.502 152.85 161.502C152.524 161.502 152.201 161.571 151.901 161.704C151.6 161.838 151.329 162.033 151.103 162.278C150.855 162.563 150.664 162.896 150.541 163.259C150.417 163.622 150.365 164.006 150.386 164.39C150.346 165.171 150.604 165.937 151.103 166.521C151.328 166.769 151.599 166.966 151.899 167.101C152.199 167.236 152.523 167.305 152.85 167.305C153.177 167.305 153.501 167.236 153.802 167.101C154.102 166.966 154.373 166.769 154.597 166.521C155.057 165.921 155.308 165.176 155.308 164.409C155.308 163.641 155.057 162.897 154.597 162.297V162.278Z" fill="#F8A700"/>
<path d="M166.125 158.874C166.766 158.524 167.482 158.35 168.206 158.367C169.101 158.354 169.98 158.61 170.738 159.104C171.519 159.614 172.145 160.343 172.544 161.208C172.998 162.197 173.222 163.284 173.198 164.381C173.22 165.48 172.996 166.57 172.544 167.564C172.144 168.432 171.519 169.167 170.738 169.685C169.984 170.183 169.108 170.443 168.215 170.432C167.494 170.447 166.782 170.272 166.143 169.925C165.578 169.621 165.095 169.174 164.739 168.625V175.854H161.259V158.536H164.712V160.184C165.066 159.627 165.553 159.176 166.125 158.874ZM168.933 162.268C168.706 162.019 168.432 161.822 168.128 161.69C167.825 161.557 167.497 161.492 167.168 161.499C166.84 161.494 166.514 161.56 166.213 161.695C165.911 161.829 165.64 162.028 165.416 162.278C164.96 162.879 164.711 163.624 164.711 164.39C164.711 165.157 164.96 165.901 165.416 166.503C165.642 166.751 165.914 166.948 166.216 167.083C166.517 167.218 166.842 167.288 167.17 167.288C167.498 167.288 167.823 167.218 168.125 167.083C168.426 166.948 168.698 166.751 168.924 166.503C169.428 165.92 169.689 165.154 169.65 164.371C169.67 163.989 169.617 163.606 169.494 163.245C169.371 162.884 169.18 162.552 168.933 162.268Z" fill="#F8A700"/>
<path d="M179.843 158.874C180.483 158.524 181.2 158.35 181.923 158.367C182.817 158.356 183.694 158.612 184.451 159.104C185.231 159.615 185.857 160.344 186.257 161.208C186.712 162.197 186.938 163.284 186.916 164.381C186.936 165.481 186.711 166.57 186.257 167.564C185.857 168.432 185.231 169.167 184.451 169.685C183.696 170.183 182.818 170.443 181.923 170.432C181.203 170.447 180.49 170.272 179.852 169.925C179.287 169.62 178.804 169.173 178.448 168.625V175.854H174.995V158.536H178.448V160.184C178.798 159.631 179.278 159.18 179.843 158.874ZM182.664 162.268C182.436 162.019 182.162 161.822 181.857 161.689C181.552 161.557 181.225 161.492 180.894 161.499C180.567 161.494 180.242 161.561 179.941 161.695C179.64 161.829 179.37 162.028 179.147 162.278C178.688 162.878 178.437 163.623 178.437 164.39C178.437 165.158 178.688 165.903 179.147 166.503C179.373 166.75 179.644 166.948 179.945 167.083C180.247 167.218 180.571 167.287 180.899 167.287C181.227 167.287 181.551 167.218 181.852 167.083C182.153 166.948 182.425 166.75 182.65 166.503C182.901 166.215 183.095 165.879 183.221 165.513C183.346 165.147 183.401 164.759 183.381 164.371C183.401 163.989 183.348 163.606 183.225 163.245C183.102 162.884 182.911 162.552 182.664 162.268Z" fill="#F8A700"/>
<path d="M200.231 158.537L193.158 175.831H189.439L192.025 169.864L187.439 158.537H191.298L193.907 165.869L196.494 158.537H200.231Z" fill="#F8A700"/>
<path d="M135.896 193.838C135.186 193.526 134.565 193.029 134.091 192.396C133.655 191.805 133.396 191.093 133.346 190.35H136.759C136.776 190.545 136.834 190.734 136.928 190.905C137.023 191.075 137.151 191.222 137.305 191.336C137.651 191.596 138.07 191.73 138.496 191.716C138.848 191.738 139.198 191.646 139.498 191.453C139.608 191.379 139.697 191.277 139.759 191.157C139.821 191.037 139.852 190.903 139.851 190.768C139.85 190.604 139.802 190.445 139.711 190.311C139.621 190.178 139.493 190.076 139.345 190.021C138.815 189.796 138.269 189.617 137.711 189.486C137.023 189.331 136.347 189.124 135.689 188.866C135.149 188.649 134.67 188.296 134.294 187.838C133.887 187.307 133.679 186.64 133.707 185.961C133.703 185.305 133.891 184.663 134.244 184.12C134.639 183.535 135.185 183.079 135.82 182.806C136.605 182.472 137.449 182.312 138.298 182.337C139.502 182.267 140.689 182.656 141.638 183.43C142.044 183.794 142.378 184.237 142.619 184.735C142.86 185.233 143.003 185.775 143.042 186.331H139.837C139.817 186.143 139.761 185.96 139.673 185.794C139.585 185.628 139.466 185.482 139.322 185.364C138.993 185.112 138.589 184.986 138.18 185.008C137.854 184.987 137.53 185.07 137.251 185.247C137.148 185.321 137.065 185.42 137.009 185.536C136.953 185.651 136.926 185.78 136.93 185.909C136.931 186.075 136.98 186.237 137.072 186.373C137.164 186.509 137.294 186.613 137.445 186.669C137.963 186.891 138.501 187.06 139.052 187.172C139.744 187.351 140.425 187.572 141.092 187.834C141.629 188.06 142.103 188.421 142.473 188.885C142.894 189.437 143.113 190.125 143.091 190.829C143.1 191.488 142.905 192.133 142.536 192.669C142.127 193.238 141.574 193.677 140.938 193.936C140.173 194.262 139.351 194.422 138.523 194.406C137.619 194.41 136.724 194.216 135.896 193.838Z" fill="#F8A700"/>
<path d="M156.344 182.468V194.204H152.891V192.608C152.522 193.141 152.032 193.57 151.464 193.857C150.846 194.175 150.164 194.336 149.474 194.326C148.684 194.338 147.905 194.131 147.217 193.725C146.55 193.32 146.014 192.717 145.678 191.993C145.299 191.16 145.112 190.248 145.132 189.327V182.473H148.567V188.82C148.529 189.484 148.739 190.138 149.153 190.646C149.583 191.061 150.147 191.292 150.733 191.292C151.319 191.292 151.884 191.061 152.313 190.646C152.729 190.14 152.94 189.485 152.9 188.82V182.468H156.344Z" fill="#F8A700"/>
<path d="M168.86 183.679C169.652 184.565 170.046 185.787 170.043 187.346V194.195H166.608V187.829C166.648 187.163 166.438 186.507 166.021 185.998C165.595 185.577 165.03 185.342 164.441 185.342C163.853 185.342 163.288 185.577 162.862 185.998C162.447 186.508 162.237 187.163 162.275 187.829V194.195H158.822V182.459H162.275V184.013C162.639 183.485 163.127 183.063 163.692 182.787C164.314 182.471 164.999 182.31 165.692 182.318C166.283 182.291 166.874 182.399 167.421 182.634C167.968 182.869 168.46 183.226 168.86 183.679Z" fill="#F8A700"/>
<path d="M174.408 193.838C173.698 193.526 173.076 193.03 172.602 192.397C172.167 191.805 171.908 191.093 171.858 190.35H175.252C175.269 190.545 175.327 190.735 175.422 190.905C175.516 191.075 175.644 191.222 175.798 191.336C176.144 191.596 176.563 191.73 176.99 191.716C177.342 191.738 177.692 191.646 177.992 191.453C178.101 191.379 178.191 191.277 178.252 191.157C178.314 191.038 178.345 190.904 178.344 190.768C178.344 190.604 178.295 190.445 178.205 190.311C178.114 190.178 177.986 190.076 177.838 190.021C177.309 189.796 176.762 189.617 176.204 189.486C175.517 189.332 174.841 189.124 174.182 188.867C173.643 188.649 173.164 188.296 172.787 187.839C172.38 187.307 172.172 186.64 172.201 185.961C172.197 185.305 172.384 184.663 172.738 184.121C173.132 183.536 173.678 183.08 174.313 182.806C175.097 182.472 175.94 182.312 176.787 182.337C177.992 182.266 179.181 182.655 180.131 183.431C180.538 183.794 180.871 184.237 181.112 184.735C181.353 185.233 181.497 185.776 181.535 186.332H178.344C178.324 186.143 178.268 185.96 178.18 185.794C178.092 185.628 177.972 185.482 177.829 185.365C177.498 185.115 177.096 184.989 176.687 185.008C176.361 184.986 176.036 185.07 175.757 185.247C175.655 185.321 175.572 185.42 175.516 185.536C175.46 185.651 175.433 185.78 175.437 185.909C175.438 186.075 175.487 186.238 175.579 186.374C175.671 186.51 175.801 186.613 175.952 186.67C176.469 186.891 177.005 187.059 177.554 187.172C178.247 187.351 178.93 187.572 179.599 187.834C180.135 188.06 180.61 188.422 180.98 188.885C181.401 189.437 181.62 190.125 181.598 190.829C181.606 191.488 181.412 192.133 181.043 192.669C180.634 193.238 180.081 193.677 179.445 193.936C178.679 194.262 177.858 194.422 177.03 194.406C176.128 194.409 175.234 194.216 174.408 193.838Z" fill="#F8A700"/>
<path d="M193.759 183.679C194.544 184.567 194.932 185.787 194.932 187.346V194.195H191.502V187.829C191.541 187.163 191.331 186.506 190.915 185.998C190.489 185.577 189.923 185.342 189.335 185.342C188.747 185.342 188.181 185.577 187.755 185.998C187.341 186.507 187.131 187.163 187.168 187.829V194.195H183.715V178.647H187.168V184.045C187.539 183.513 188.033 183.087 188.604 182.806C189.24 182.488 189.938 182.327 190.644 182.337C191.226 182.311 191.806 182.418 192.344 182.65C192.882 182.882 193.365 183.233 193.759 183.679Z" fill="#F8A700"/>
<path d="M197.595 180.694C197.41 180.521 197.262 180.309 197.162 180.071C197.063 179.834 197.013 179.577 197.017 179.318C197.01 179.054 197.058 178.791 197.158 178.548C197.258 178.305 197.407 178.087 197.595 177.91C198.001 177.529 198.534 177.328 199.08 177.351C199.619 177.332 200.144 177.533 200.543 177.91C200.731 178.087 200.88 178.305 200.98 178.548C201.08 178.791 201.127 179.054 201.12 179.318C201.124 179.577 201.075 179.834 200.975 180.071C200.876 180.309 200.728 180.521 200.543 180.694C200.144 181.071 199.619 181.272 199.08 181.252C198.534 181.275 198.001 181.075 197.595 180.694ZM200.795 182.468V194.204H197.342V182.468H200.795Z" fill="#F8A700"/>
<path d="M213.335 183.679C214.167 184.698 214.59 186.011 214.517 187.345V194.194H211.082V187.829C211.12 187.163 210.91 186.507 210.495 185.998C210.069 185.577 209.504 185.342 208.916 185.342C208.328 185.342 207.762 185.577 207.336 185.998C206.92 186.506 206.709 187.163 206.749 187.829V194.194H203.292V182.459H206.749V184.012C207.11 183.484 207.597 183.062 208.162 182.787C208.784 182.471 209.469 182.31 210.161 182.318C210.754 182.292 211.344 182.4 211.892 182.635C212.44 182.87 212.932 183.227 213.335 183.679Z" fill="#F8A700"/>
<path d="M227.49 189.195H219.667C219.679 189.82 219.921 190.417 220.344 190.861C220.74 191.25 221.268 191.459 221.811 191.443C222.189 191.475 222.566 191.382 222.89 191.178C223.214 190.974 223.469 190.67 223.617 190.307H227.296C227.105 191.073 226.75 191.784 226.258 192.387C225.754 193.01 225.122 193.506 224.407 193.838C223.626 194.197 222.779 194.377 221.924 194.363C220.896 194.384 219.88 194.13 218.972 193.626C218.116 193.144 217.414 192.414 216.95 191.523C216.475 190.532 216.228 189.439 216.228 188.331C216.228 187.223 216.475 186.131 216.95 185.139C217.408 184.249 218.106 183.518 218.959 183.036C219.875 182.533 220.898 182.28 221.933 182.299C222.945 182.28 223.945 182.527 224.84 183.017C225.679 183.482 226.37 184.19 226.831 185.054C227.325 186.001 227.572 187.066 227.548 188.143C227.546 188.495 227.526 188.846 227.49 189.195ZM224.014 187.195C224.025 186.918 223.976 186.642 223.871 186.388C223.765 186.134 223.606 185.907 223.405 185.726C222.984 185.354 222.444 185.16 221.893 185.181C221.358 185.163 220.836 185.351 220.426 185.707C220.011 186.09 219.749 186.621 219.69 187.195H224.014Z" fill="#F8A700"/>
<path d="M342.965 183.611C341.078 183.611 339.612 185.141 339.612 187.028C339.612 188.915 341.142 190.444 342.965 190.444C344.788 190.444 346.318 188.915 346.318 187.028C346.318 185.141 344.916 183.611 342.965 183.611ZM322.464 183.611C320.577 183.611 319.112 185.141 319.112 187.028C319.112 188.915 320.642 190.444 322.464 190.444C324.287 190.444 325.817 188.915 325.817 187.028C325.817 185.141 324.415 183.611 322.464 183.611ZM350.539 158.323C350.104 157.747 349.441 157.417 348.72 157.417H318.62L318.514 155.389C318.357 154.583 317.652 154 316.834 154H311.644C310.765 154 310 154.765 310 155.644C310 156.523 310.765 157.417 311.644 157.417H315.356L319.647 179.945C319.866 180.75 320.571 181.333 321.389 181.333H344.738C345.681 181.333 346.446 180.568 346.446 179.689C346.446 178.678 345.684 177.917 344.738 177.917H322.806L322.151 174.5H344.816C345.833 174.5 346.727 173.826 347.006 172.848L350.911 160.384C351.109 159.627 350.973 158.899 350.539 158.323Z" fill="#F8A700"/>
<line x1="27.2428" y1="159" x2="51.9916" y2="183.749" stroke="#F8A700" stroke-width="6" stroke-linecap="round"/>
<line x1="51.9914" y1="159.243" x2="27.2427" y2="183.991" stroke="#F8A700" stroke-width="6" stroke-linecap="round"/>
<rect width="265" height="71" fill="#F8A700"/>
<path d="M53.84 48H47.684L37.388 32.412V48H31.232V22.728H37.388L47.684 38.388V22.728H53.84V48ZM57.0783 37.92C57.0783 35.856 57.4623 34.044 58.2303 32.484C59.0223 30.924 60.0903 29.724 61.4343 28.884C62.7783 28.044 64.2783 27.624 65.9343 27.624C67.3503 27.624 68.5863 27.912 69.6423 28.488C70.7223 29.064 71.5503 29.82 72.1263 30.756V27.912H78.2823V48H72.1263V45.156C71.5263 46.092 70.6863 46.848 69.6063 47.424C68.5503 48 67.3143 48.288 65.8983 48.288C64.2663 48.288 62.7783 47.868 61.4343 47.028C60.0903 46.164 59.0223 44.952 58.2303 43.392C57.4623 41.808 57.0783 39.984 57.0783 37.92ZM72.1263 37.956C72.1263 36.42 71.6943 35.208 70.8303 34.32C69.9903 33.432 68.9583 32.988 67.7343 32.988C66.5103 32.988 65.4663 33.432 64.6023 34.32C63.7623 35.184 63.3423 36.384 63.3423 37.92C63.3423 39.456 63.7623 40.68 64.6023 41.592C65.4663 42.48 66.5103 42.924 67.7343 42.924C68.9583 42.924 69.9903 42.48 70.8303 41.592C71.6943 40.704 72.1263 39.492 72.1263 37.956ZM91.7719 42.24L96.1279 27.912H102.68L95.5519 48H87.9559L80.8279 27.912H87.4159L91.7719 42.24ZM108.367 25.824C107.287 25.824 106.399 25.512 105.703 24.888C105.031 24.24 104.695 23.448 104.695 22.512C104.695 21.552 105.031 20.76 105.703 20.136C106.399 19.488 107.287 19.164 108.367 19.164C109.423 19.164 110.287 19.488 110.959 20.136C111.655 20.76 112.003 21.552 112.003 22.512C112.003 23.448 111.655 24.24 110.959 24.888C110.287 25.512 109.423 25.824 108.367 25.824ZM111.427 27.912V48H105.271V27.912H111.427ZM123.52 27.624C124.936 27.624 126.172 27.912 127.228 28.488C128.308 29.064 129.136 29.82 129.712 30.756V27.912H135.868V47.964C135.868 49.812 135.496 51.48 134.752 52.968C134.032 54.48 132.916 55.68 131.404 56.568C129.916 57.456 128.056 57.9 125.824 57.9C122.848 57.9 120.436 57.192 118.588 55.776C116.74 54.384 115.684 52.488 115.42 50.088H121.504C121.696 50.856 122.152 51.456 122.872 51.888C123.592 52.344 124.48 52.572 125.536 52.572C126.808 52.572 127.816 52.2 128.56 51.456C129.328 50.736 129.712 49.572 129.712 47.964V45.12C129.112 46.056 128.284 46.824 127.228 47.424C126.172 48 124.936 48.288 123.52 48.288C121.864 48.288 120.364 47.868 119.02 47.028C117.676 46.164 116.608 44.952 115.816 43.392C115.048 41.808 114.664 39.984 114.664 37.92C114.664 35.856 115.048 34.044 115.816 32.484C116.608 30.924 117.676 29.724 119.02 28.884C120.364 28.044 121.864 27.624 123.52 27.624ZM129.712 37.956C129.712 36.42 129.28 35.208 128.416 34.32C127.576 33.432 126.544 32.988 125.32 32.988C124.096 32.988 123.052 33.432 122.188 34.32C121.348 35.184 120.928 36.384 120.928 37.92C120.928 39.456 121.348 40.68 122.188 41.592C123.052 42.48 124.096 42.924 125.32 42.924C126.544 42.924 127.576 42.48 128.416 41.592C129.28 40.704 129.712 39.492 129.712 37.956ZM139.098 37.92C139.098 35.856 139.482 34.044 140.25 32.484C141.042 30.924 142.11 29.724 143.454 28.884C144.798 28.044 146.298 27.624 147.954 27.624C149.37 27.624 150.606 27.912 151.662 28.488C152.742 29.064 153.57 29.82 154.146 30.756V27.912H160.302V48H154.146V45.156C153.546 46.092 152.706 46.848 151.626 47.424C150.57 48 149.334 48.288 147.918 48.288C146.286 48.288 144.798 47.868 143.454 47.028C142.11 46.164 141.042 44.952 140.25 43.392C139.482 41.808 139.098 39.984 139.098 37.92ZM154.146 37.956C154.146 36.42 153.714 35.208 152.85 34.32C152.01 33.432 150.978 32.988 149.754 32.988C148.53 32.988 147.486 33.432 146.622 34.32C145.782 35.184 145.362 36.384 145.362 37.92C145.362 39.456 145.782 40.68 146.622 41.592C147.486 42.48 148.53 42.924 149.754 42.924C150.978 42.924 152.01 42.48 152.85 41.592C153.714 40.704 154.146 39.492 154.146 37.956ZM175.951 42.78V48H172.819C170.587 48 168.847 47.46 167.599 46.38C166.351 45.276 165.727 43.488 165.727 41.016V33.024H163.279V27.912H165.727V23.016H171.883V27.912H175.915V33.024H171.883V41.088C171.883 41.688 172.027 42.12 172.315 42.384C172.603 42.648 173.083 42.78 173.755 42.78H175.951ZM182.476 25.824C181.396 25.824 180.508 25.512 179.812 24.888C179.14 24.24 178.804 23.448 178.804 22.512C178.804 21.552 179.14 20.76 179.812 20.136C180.508 19.488 181.396 19.164 182.476 19.164C183.532 19.164 184.396 19.488 185.068 20.136C185.764 20.76 186.112 21.552 186.112 22.512C186.112 23.448 185.764 24.24 185.068 24.888C184.396 25.512 183.532 25.824 182.476 25.824ZM185.536 27.912V48H179.38V27.912H185.536ZM199.142 48.288C197.174 48.288 195.398 47.868 193.814 47.028C192.254 46.188 191.018 44.988 190.106 43.428C189.218 41.868 188.774 40.044 188.774 37.956C188.774 35.892 189.23 34.08 190.142 32.52C191.054 30.936 192.302 29.724 193.886 28.884C195.47 28.044 197.246 27.624 199.214 27.624C201.182 27.624 202.958 28.044 204.542 28.884C206.126 29.724 207.374 30.936 208.286 32.52C209.198 34.08 209.654 35.892 209.654 37.956C209.654 40.02 209.186 41.844 208.25 43.428C207.338 44.988 206.078 46.188 204.47 47.028C202.886 47.868 201.11 48.288 199.142 48.288ZM199.142 42.96C200.318 42.96 201.314 42.528 202.13 41.664C202.97 40.8 203.39 39.564 203.39 37.956C203.39 36.348 202.982 35.112 202.166 34.248C201.374 33.384 200.39 32.952 199.214 32.952C198.014 32.952 197.018 33.384 196.226 34.248C195.434 35.088 195.038 36.324 195.038 37.956C195.038 39.564 195.422 40.8 196.19 41.664C196.982 42.528 197.966 42.96 199.142 42.96ZM225.16 27.696C227.512 27.696 229.384 28.464 230.776 30C232.192 31.512 232.9 33.6 232.9 36.264V48H226.78V37.092C226.78 35.748 226.432 34.704 225.736 33.96C225.04 33.216 224.104 32.844 222.928 32.844C221.752 32.844 220.816 33.216 220.12 33.96C219.424 34.704 219.076 35.748 219.076 37.092V48H212.92V27.912H219.076V30.576C219.7 29.688 220.54 28.992 221.596 28.488C222.652 27.96 223.84 27.696 225.16 27.696Z" fill="white"/>
</svg>
